<svg xmlns="http://www.w3.org/2000/svg" viewBox="0 0 71.12 128.5" width="71.12mm" height="128.5mm">
<defs><linearGradient id="bg" x1="0" y1="0" x2="0" y2="1"><stop offset="0%" stop-color="#F5F1E9"/><stop offset="100%" stop-color="#EDE7DC"/></linearGradient></defs>
<rect x="0" y="0" width="71.12" height="128.5" fill="url(#bg)"/>
<rect x="0.5" y="0.5" width="70.12" height="127.5" fill="none" stroke="#8A7F6A" stroke-width="0.4" opacity="0.6"/>
<g fill="#2A2620"><path d="M188 1493H573V0H188Z" transform="translate(9.200,7.200) scale(0.002148,-0.002148)"/>
<path d="M188 1493H618L1161 469V1493H1526V0H1096L553 1024V0H188Z" transform="translate(10.919,7.200) scale(0.002148,-0.002148)"/>
<path d="M10 1493H1386V1202H891V0H506V1202H10Z" transform="translate(14.786,7.200) scale(0.002148,-0.002148)"/>
<path d="M188 1493H1227V1202H573V924H1188V633H573V291H1249V0H188Z" transform="translate(17.937,7.200) scale(0.002148,-0.002148)"/>
<path d="M188 1493H573V291H1249V0H188Z" transform="translate(21.093,7.200) scale(0.002148,-0.002148)"/></g>
<g fill="#4A4438"><path d="M1210 934Q1278 1038 1371.5 1092.5Q1465 1147 1577 1147Q1770 1147 1871.0 1028.0Q1972 909 1972 682V0H1612V584Q1613 597 1613.5 611.0Q1614 625 1614 651Q1614 770 1579.0 823.5Q1544 877 1466 877Q1364 877 1308.5 793.0Q1253 709 1251 550V0H891V584Q891 770 859.0 823.5Q827 877 745 877Q642 877 586.0 792.5Q530 708 530 551V0H170V1120H530V956Q596 1051 681.5 1099.0Q767 1147 870 1147Q986 1147 1075.0 1091.0Q1164 1035 1210 934Z" transform="translate(9.200,10.400) scale(0.000928,-0.000928)"/>
<path d="M705 891Q586 891 523.5 805.5Q461 720 461 559Q461 398 523.5 312.5Q586 227 705 227Q822 227 884.0 312.5Q946 398 946 559Q946 720 884.0 805.5Q822 891 705 891ZM705 1147Q994 1147 1156.5 991.0Q1319 835 1319 559Q1319 283 1156.5 127.0Q994 -29 705 -29Q415 -29 251.5 127.0Q88 283 88 559Q88 835 251.5 991.0Q415 1147 705 1147Z" transform="translate(11.279,10.400) scale(0.000928,-0.000928)"/>
<path d="M934 956V1556H1294V0H934V162Q860 63 771.0 17.0Q682 -29 565 -29Q358 -29 225.0 135.5Q92 300 92 559Q92 818 225.0 982.5Q358 1147 565 1147Q681 1147 770.5 1100.5Q860 1054 934 956ZM698 231Q813 231 873.5 315.0Q934 399 934 559Q934 719 873.5 803.0Q813 887 698 887Q584 887 523.5 803.0Q463 719 463 559Q463 399 523.5 315.0Q584 231 698 231Z" transform="translate(12.649,10.400) scale(0.000928,-0.000928)"/>
<path d="M160 436V1120H520V1008Q520 917 519.0 779.5Q518 642 518 596Q518 461 525.0 401.5Q532 342 549 315Q571 280 606.5 261.0Q642 242 688 242Q800 242 864.0 328.0Q928 414 928 567V1120H1286V0H928V162Q847 64 756.5 17.5Q666 -29 557 -29Q363 -29 261.5 90.0Q160 209 160 436Z" transform="translate(14.077,10.400) scale(0.000928,-0.000928)"/>
<path d="M172 1556H530V0H172Z" transform="translate(15.498,10.400) scale(0.000928,-0.000928)"/>
<path d="M674 504Q562 504 505.5 466.0Q449 428 449 354Q449 286 494.5 247.5Q540 209 621 209Q722 209 791.0 281.5Q860 354 860 463V504ZM1221 639V0H860V166Q788 64 698.0 17.5Q608 -29 479 -29Q305 -29 196.5 72.5Q88 174 88 336Q88 533 223.5 625.0Q359 717 649 717H860V745Q860 830 793.0 869.5Q726 909 584 909Q469 909 370.0 886.0Q271 863 186 817V1090Q301 1118 417.0 1132.5Q533 1147 649 1147Q952 1147 1086.5 1027.5Q1221 908 1221 639Z" transform="translate(16.182,10.400) scale(0.000928,-0.000928)"/>
<path d="M563 1438V1120H932V864H563V389Q563 311 594.0 283.5Q625 256 717 256H901V0H594Q382 0 293.5 88.5Q205 177 205 389V864H27V1120H205V1438Z" transform="translate(17.528,10.400) scale(0.000928,-0.000928)"/>
<path d="M172 1120H530V0H172ZM172 1556H530V1264H172Z" transform="translate(18.481,10.400) scale(0.000928,-0.000928)"/>
<path d="M705 891Q586 891 523.5 805.5Q461 720 461 559Q461 398 523.5 312.5Q586 227 705 227Q822 227 884.0 312.5Q946 398 946 559Q946 720 884.0 805.5Q822 891 705 891ZM705 1147Q994 1147 1156.5 991.0Q1319 835 1319 559Q1319 283 1156.5 127.0Q994 -29 705 -29Q415 -29 251.5 127.0Q88 283 88 559Q88 835 251.5 991.0Q415 1147 705 1147Z" transform="translate(19.165,10.400) scale(0.000928,-0.000928)"/>
<path d="M1298 682V0H938V111V522Q938 667 931.5 722.0Q925 777 909 803Q888 838 852.0 857.5Q816 877 770 877Q658 877 594.0 790.5Q530 704 530 551V0H172V1120H530V956Q611 1054 702.0 1100.5Q793 1147 903 1147Q1097 1147 1197.5 1028.0Q1298 909 1298 682Z" transform="translate(20.536,10.400) scale(0.000928,-0.000928)"/>
<path d="M977 1284V760H1499V524H977V0H739V524H217V760H739V1284Z" transform="translate(22.651,10.400) scale(0.000928,-0.000928)"/>
<path d="M909 1556V1321H711Q635 1321 605.0 1293.5Q575 1266 575 1198V1120H881V864H575V0H217V864H39V1120H217V1198Q217 1381 319.0 1468.5Q421 1556 635 1556Z" transform="translate(25.017,10.400) scale(0.000928,-0.000928)"/>
<path d="M455 573 51 1120H430L659 788L891 1120H1270L866 575L1290 0H911L659 354L410 0H31Z" transform="translate(25.885,10.400) scale(0.000928,-0.000928)"/>
<path d="M909 1556V1321H711Q635 1321 605.0 1293.5Q575 1266 575 1198V1120H881V864H575V0H217V864H39V1120H217V1198Q217 1381 319.0 1468.5Q421 1556 635 1556Z" transform="translate(27.866,10.400) scale(0.000928,-0.000928)"/>
<path d="M705 891Q586 891 523.5 805.5Q461 720 461 559Q461 398 523.5 312.5Q586 227 705 227Q822 227 884.0 312.5Q946 398 946 559Q946 720 884.0 805.5Q822 891 705 891ZM705 1147Q994 1147 1156.5 991.0Q1319 835 1319 559Q1319 283 1156.5 127.0Q994 -29 705 -29Q415 -29 251.5 127.0Q88 283 88 559Q88 835 251.5 991.0Q415 1147 705 1147Z" transform="translate(28.734,10.400) scale(0.000928,-0.000928)"/>
<path d="M1004 815Q957 837 910.5 847.5Q864 858 817 858Q679 858 604.5 769.5Q530 681 530 516V0H172V1120H530V936Q599 1046 688.5 1096.5Q778 1147 903 1147Q921 1147 942.0 1145.5Q963 1144 1003 1139Z" transform="translate(30.105,10.400) scale(0.000928,-0.000928)"/>
<path d="M1077 1085V793Q1004 843 930.5 867.0Q857 891 778 891Q628 891 544.5 803.5Q461 716 461 559Q461 402 544.5 314.5Q628 227 778 227Q862 227 937.5 252.0Q1013 277 1077 326V33Q993 2 906.5 -13.5Q820 -29 733 -29Q430 -29 259.0 126.5Q88 282 88 559Q88 836 259.0 991.5Q430 1147 733 1147Q821 1147 906.5 1131.5Q992 1116 1077 1085Z" transform="translate(31.783,10.400) scale(0.000928,-0.000928)"/>
<path d="M705 891Q586 891 523.5 805.5Q461 720 461 559Q461 398 523.5 312.5Q586 227 705 227Q822 227 884.0 312.5Q946 398 946 559Q946 720 884.0 805.5Q822 891 705 891ZM705 1147Q994 1147 1156.5 991.0Q1319 835 1319 559Q1319 283 1156.5 127.0Q994 -29 705 -29Q415 -29 251.5 127.0Q88 283 88 559Q88 835 251.5 991.0Q415 1147 705 1147Z" transform="translate(32.966,10.400) scale(0.000928,-0.000928)"/>
<path d="M1210 934Q1278 1038 1371.5 1092.5Q1465 1147 1577 1147Q1770 1147 1871.0 1028.0Q1972 909 1972 682V0H1612V584Q1613 597 1613.5 611.0Q1614 625 1614 651Q1614 770 1579.0 823.5Q1544 877 1466 877Q1364 877 1308.5 793.0Q1253 709 1251 550V0H891V584Q891 770 859.0 823.5Q827 877 745 877Q642 877 586.0 792.5Q530 708 530 551V0H170V1120H530V956Q596 1051 681.5 1099.0Q767 1147 870 1147Q986 1147 1075.0 1091.0Q1164 1035 1210 934Z" transform="translate(34.336,10.400) scale(0.000928,-0.000928)"/>
<path d="M1210 934Q1278 1038 1371.5 1092.5Q1465 1147 1577 1147Q1770 1147 1871.0 1028.0Q1972 909 1972 682V0H1612V584Q1613 597 1613.5 611.0Q1614 625 1614 651Q1614 770 1579.0 823.5Q1544 877 1466 877Q1364 877 1308.5 793.0Q1253 709 1251 550V0H891V584Q891 770 859.0 823.5Q827 877 745 877Q642 877 586.0 792.5Q530 708 530 551V0H170V1120H530V956Q596 1051 681.5 1099.0Q767 1147 870 1147Q986 1147 1075.0 1091.0Q1164 1035 1210 934Z" transform="translate(36.415,10.400) scale(0.000928,-0.000928)"/>
<path d="M674 504Q562 504 505.5 466.0Q449 428 449 354Q449 286 494.5 247.5Q540 209 621 209Q722 209 791.0 281.5Q860 354 860 463V504ZM1221 639V0H860V166Q788 64 698.0 17.5Q608 -29 479 -29Q305 -29 196.5 72.5Q88 174 88 336Q88 533 223.5 625.0Q359 717 649 717H860V745Q860 830 793.0 869.5Q726 909 584 909Q469 909 370.0 886.0Q271 863 186 817V1090Q301 1118 417.0 1132.5Q533 1147 649 1147Q952 1147 1086.5 1027.5Q1221 908 1221 639Z" transform="translate(38.494,10.400) scale(0.000928,-0.000928)"/>
<path d="M1298 682V0H938V111V522Q938 667 931.5 722.0Q925 777 909 803Q888 838 852.0 857.5Q816 877 770 877Q658 877 594.0 790.5Q530 704 530 551V0H172V1120H530V956Q611 1054 702.0 1100.5Q793 1147 903 1147Q1097 1147 1197.5 1028.0Q1298 909 1298 682Z" transform="translate(39.840,10.400) scale(0.000928,-0.000928)"/>
<path d="M934 956V1556H1294V0H934V162Q860 63 771.0 17.0Q682 -29 565 -29Q358 -29 225.0 135.5Q92 300 92 559Q92 818 225.0 982.5Q358 1147 565 1147Q681 1147 770.5 1100.5Q860 1054 934 956ZM698 231Q813 231 873.5 315.0Q934 399 934 559Q934 719 873.5 803.0Q813 887 698 887Q584 887 523.5 803.0Q463 719 463 559Q463 399 523.5 315.0Q584 231 698 231Z" transform="translate(41.260,10.400) scale(0.000928,-0.000928)"/></g>
<circle cx="65.62" cy="5.5" r="1.0" fill="#2E4A6E" opacity="0.85"/>
<circle cx="65.62" cy="5.5" r="1.6" fill="none" stroke="#8A7F6A" stroke-width="0.3" opacity="0.4"/>
<circle cx="5.5" cy="5.5" r="1.0" fill="#2E4A6E" opacity="0.85"/>
<circle cx="5.5" cy="5.5" r="1.6" fill="none" stroke="#8A7F6A" stroke-width="0.3" opacity="0.4"/>
<rect x="9.5" y="12.5" width="57.120000000000005" height="14.205333333333332" rx="1.0" fill="#DDD6C6" opacity="0.9" stroke="#8A7F6A" stroke-width="0.5" stroke-opacity="0.8"/>
<g fill="#4A4438" transform="translate(7.6,19.602666666666664) rotate(-90)"><path d="M188 1493H678L1018 694L1360 1493H1849V0H1485V1092L1141 287H897L553 1092V0H188Z" transform="translate(-3.566,0.000) scale(0.000830,-0.000830)"/>
<path d="M188 1493H1227V1202H573V924H1188V633H573V291H1249V0H188Z" transform="translate(-1.705,0.000) scale(0.000830,-0.000830)"/>
<path d="M10 1493H1386V1202H891V0H506V1202H10Z" transform="translate(-0.427,0.000) scale(0.000830,-0.000830)"/>
<path d="M188 1493H1227V1202H573V924H1188V633H573V291H1249V0H188Z" transform="translate(0.848,0.000) scale(0.000830,-0.000830)"/>
<path d="M735 831Q856 831 908.5 876.0Q961 921 961 1024Q961 1126 908.5 1170.0Q856 1214 735 1214H573V831ZM573 565V0H188V1493H776Q1071 1493 1208.5 1394.0Q1346 1295 1346 1081Q1346 933 1274.5 838.0Q1203 743 1059 698Q1138 680 1200.5 616.5Q1263 553 1327 424L1536 0H1126L944 371Q889 483 832.5 524.0Q776 565 682 565Z" transform="translate(2.126,0.000) scale(0.000830,-0.000830)"/><path d="M188 1493H678L1018 694L1360 1493H1849V0H1485V1092L1141 287H897L553 1092V0H188Z" transform="translate(-3.526,0.000) scale(0.000830,-0.000830)"/>
<path d="M188 1493H1227V1202H573V924H1188V633H573V291H1249V0H188Z" transform="translate(-1.665,0.000) scale(0.000830,-0.000830)"/>
<path d="M10 1493H1386V1202H891V0H506V1202H10Z" transform="translate(-0.387,0.000) scale(0.000830,-0.000830)"/>
<path d="M188 1493H1227V1202H573V924H1188V633H573V291H1249V0H188Z" transform="translate(0.888,0.000) scale(0.000830,-0.000830)"/>
<path d="M735 831Q856 831 908.5 876.0Q961 921 961 1024Q961 1126 908.5 1170.0Q856 1214 735 1214H573V831ZM573 565V0H188V1493H776Q1071 1493 1208.5 1394.0Q1346 1295 1346 1081Q1346 933 1274.5 838.0Q1203 743 1059 698Q1138 680 1200.5 616.5Q1263 553 1327 424L1536 0H1126L944 371Q889 483 832.5 524.0Q776 565 682 565Z" transform="translate(2.166,0.000) scale(0.000830,-0.000830)"/></g>
<rect x="9.5" y="31.705333333333332" width="57.120000000000005" height="14.205333333333332" rx="1.0" fill="#DDD6C6" opacity="0.9" stroke="#8A7F6A" stroke-width="0.5" stroke-opacity="0.8"/>
<g fill="#4A4438" transform="translate(7.6,38.808) rotate(-90)"><path d="M188 1493H573V0H188Z" transform="translate(-1.484,0.000) scale(0.000830,-0.000830)"/>
<path d="M526 1493H748L221 -190H0Z" transform="translate(-0.788,0.000) scale(0.000830,-0.000830)"/>
<path d="M870 1241Q694 1241 597.0 1111.0Q500 981 500 745Q500 510 597.0 380.0Q694 250 870 250Q1047 250 1144.0 380.0Q1241 510 1241 745Q1241 981 1144.0 1111.0Q1047 1241 870 1241ZM870 1520Q1230 1520 1434.0 1314.0Q1638 1108 1638 745Q1638 383 1434.0 177.0Q1230 -29 870 -29Q511 -29 306.5 177.0Q102 383 102 745Q102 1108 306.5 1314.0Q511 1520 870 1520Z" transform="translate(-0.105,0.000) scale(0.000830,-0.000830)"/><path d="M188 1493H573V0H188Z" transform="translate(-1.444,0.000) scale(0.000830,-0.000830)"/>
<path d="M526 1493H748L221 -190H0Z" transform="translate(-0.748,0.000) scale(0.000830,-0.000830)"/>
<path d="M870 1241Q694 1241 597.0 1111.0Q500 981 500 745Q500 510 597.0 380.0Q694 250 870 250Q1047 250 1144.0 380.0Q1241 510 1241 745Q1241 981 1144.0 1111.0Q1047 1241 870 1241ZM870 1520Q1230 1520 1434.0 1314.0Q1638 1108 1638 745Q1638 383 1434.0 177.0Q1230 -29 870 -29Q511 -29 306.5 177.0Q102 383 102 745Q102 1108 306.5 1314.0Q511 1520 870 1520Z" transform="translate(-0.065,0.000) scale(0.000830,-0.000830)"/></g>
<rect x="9.5" y="55.85266666666667" width="57.120000000000005" height="35.605333333333334" rx="1.0" fill="#DDD6C6" opacity="0.9" stroke="#8A6423" stroke-width="0.5" stroke-opacity="0.8"/>
<g fill="#8A6423" transform="translate(7.6,73.65533333333335) rotate(-90)"><path d="M10 1493H1386V1202H891V0H506V1202H10Z" transform="translate(-2.473,0.000) scale(0.000830,-0.000830)"/>
<path d="M735 831Q856 831 908.5 876.0Q961 921 961 1024Q961 1126 908.5 1170.0Q856 1214 735 1214H573V831ZM573 565V0H188V1493H776Q1071 1493 1208.5 1394.0Q1346 1295 1346 1081Q1346 933 1274.5 838.0Q1203 743 1059 698Q1138 680 1200.5 616.5Q1263 553 1327 424L1536 0H1126L944 371Q889 483 832.5 524.0Q776 565 682 565Z" transform="translate(-1.198,0.000) scale(0.000830,-0.000830)"/>
<path d="M188 1493H573V0H188Z" transform="translate(0.242,0.000) scale(0.000830,-0.000830)"/>
<path d="M1530 111Q1386 41 1231.0 6.0Q1076 -29 911 -29Q538 -29 320.0 179.5Q102 388 102 745Q102 1106 324.0 1313.0Q546 1520 932 1520Q1081 1520 1217.5 1492.0Q1354 1464 1475 1409V1100Q1350 1171 1226.5 1206.0Q1103 1241 979 1241Q749 1241 624.5 1112.5Q500 984 500 745Q500 508 620.0 379.0Q740 250 961 250Q1021 250 1072.5 257.5Q1124 265 1165 281V571H930V829H1530Z" transform="translate(0.938,0.000) scale(0.000830,-0.000830)"/><path d="M10 1493H1386V1202H891V0H506V1202H10Z" transform="translate(-2.433,0.000) scale(0.000830,-0.000830)"/>
<path d="M735 831Q856 831 908.5 876.0Q961 921 961 1024Q961 1126 908.5 1170.0Q856 1214 735 1214H573V831ZM573 565V0H188V1493H776Q1071 1493 1208.5 1394.0Q1346 1295 1346 1081Q1346 933 1274.5 838.0Q1203 743 1059 698Q1138 680 1200.5 616.5Q1263 553 1327 424L1536 0H1126L944 371Q889 483 832.5 524.0Q776 565 682 565Z" transform="translate(-1.158,0.000) scale(0.000830,-0.000830)"/>
<path d="M188 1493H573V0H188Z" transform="translate(0.282,0.000) scale(0.000830,-0.000830)"/>
<path d="M1530 111Q1386 41 1231.0 6.0Q1076 -29 911 -29Q538 -29 320.0 179.5Q102 388 102 745Q102 1106 324.0 1313.0Q546 1520 932 1520Q1081 1520 1217.5 1492.0Q1354 1464 1475 1409V1100Q1350 1171 1226.5 1206.0Q1103 1241 979 1241Q749 1241 624.5 1112.5Q500 984 500 745Q500 508 620.0 379.0Q740 250 961 250Q1021 250 1072.5 257.5Q1124 265 1165 281V571H930V829H1530Z" transform="translate(0.978,0.000) scale(0.000830,-0.000830)"/></g>
<rect x="9.5" y="101.4" width="57.120000000000005" height="22.599999999999998" rx="1.0" fill="#DDD6C6" opacity="0.9" stroke="#8A2A2A" stroke-width="0.5" stroke-opacity="0.8"/>
<g fill="#8A2A2A" transform="translate(7.6,112.7) rotate(-90)"><path d="M188 1493H1227V1202H573V924H1188V633H573V0H188Z" transform="translate(-1.360,0.000) scale(0.000830,-0.000830)"/>
<path d="M1020 762 1538 0H1137L788 510L442 0H39L557 762L59 1493H461L788 1012L1114 1493H1518Z" transform="translate(-0.082,0.000) scale(0.000830,-0.000830)"/><path d="M188 1493H1227V1202H573V924H1188V633H573V0H188Z" transform="translate(-1.320,0.000) scale(0.000830,-0.000830)"/>
<path d="M1020 762 1538 0H1137L788 510L442 0H39L557 762L59 1493H461L788 1012L1114 1493H1518Z" transform="translate(-0.042,0.000) scale(0.000830,-0.000830)"/></g>
<rect x="10.900" y="13.900" width="54.320" height="11.405" rx="1.2" fill="#2E281F" opacity="0.25"/>
<rect x="10.900" y="13.900" width="54.320" height="11.405" rx="1.2" fill="none" stroke="#8A7F6A" stroke-width="0.35" opacity="0.6"/>
<circle cx="15.403" cy="37.508" r="4.703" fill="none" stroke="#2E4A6E" stroke-width="1.6" opacity="0.55"/>
<g fill="#2E281F"><path d="M188 1493H1227V1202H573V924H1188V633H573V291H1249V0H188Z" transform="translate(13.600,44.511) scale(0.000537,-0.000537)"/>
<path d="M1020 762 1538 0H1137L788 510L442 0H39L557 762L59 1493H461L788 1012L1114 1493H1518Z" transform="translate(14.389,44.511) scale(0.000537,-0.000537)"/>
<path d="M10 1493H1386V1202H891V0H506V1202H10Z" transform="translate(15.279,44.511) scale(0.000537,-0.000537)"/>
<path d="M188 1493H573V291H1249V0H188Z" transform="translate(16.469,44.511) scale(0.000537,-0.000537)"/></g>
<g fill="#2E281F"><path d="M188 1493H1227V1202H573V924H1188V633H573V291H1249V0H188Z" transform="translate(13.640,44.511) scale(0.000537,-0.000537)"/>
<path d="M1020 762 1538 0H1137L788 510L442 0H39L557 762L59 1493H461L788 1012L1114 1493H1518Z" transform="translate(14.429,44.511) scale(0.000537,-0.000537)"/>
<path d="M10 1493H1386V1202H891V0H506V1202H10Z" transform="translate(15.319,44.511) scale(0.000537,-0.000537)"/>
<path d="M188 1493H573V291H1249V0H188Z" transform="translate(16.509,44.511) scale(0.000537,-0.000537)"/></g>
<circle cx="30.508" cy="37.508" r="4.703" fill="none" stroke="#2E4A6E" stroke-width="1.6" opacity="0.55"/>
<g fill="#2E281F"><path d="M188 1493H1227V1202H573V924H1188V633H573V291H1249V0H188Z" transform="translate(28.628,44.511) scale(0.000537,-0.000537)"/>
<path d="M1020 762 1538 0H1137L788 510L442 0H39L557 762L59 1493H461L788 1012L1114 1493H1518Z" transform="translate(29.417,44.511) scale(0.000537,-0.000537)"/>
<path d="M10 1493H1386V1202H891V0H506V1202H10Z" transform="translate(30.308,44.511) scale(0.000537,-0.000537)"/>
<path d="M735 831Q856 831 908.5 876.0Q961 921 961 1024Q961 1126 908.5 1170.0Q856 1214 735 1214H573V831ZM573 565V0H188V1493H776Q1071 1493 1208.5 1394.0Q1346 1295 1346 1081Q1346 933 1274.5 838.0Q1203 743 1059 698Q1138 680 1200.5 616.5Q1263 553 1327 424L1536 0H1126L944 371Q889 483 832.5 524.0Q776 565 682 565Z" transform="translate(31.498,44.511) scale(0.000537,-0.000537)"/></g>
<g fill="#2E281F"><path d="M188 1493H1227V1202H573V924H1188V633H573V291H1249V0H188Z" transform="translate(28.668,44.511) scale(0.000537,-0.000537)"/>
<path d="M1020 762 1538 0H1137L788 510L442 0H39L557 762L59 1493H461L788 1012L1114 1493H1518Z" transform="translate(29.457,44.511) scale(0.000537,-0.000537)"/>
<path d="M10 1493H1386V1202H891V0H506V1202H10Z" transform="translate(30.348,44.511) scale(0.000537,-0.000537)"/>
<path d="M735 831Q856 831 908.5 876.0Q961 921 961 1024Q961 1126 908.5 1170.0Q856 1214 735 1214H573V831ZM573 565V0H188V1493H776Q1071 1493 1208.5 1394.0Q1346 1295 1346 1081Q1346 933 1274.5 838.0Q1203 743 1059 698Q1138 680 1200.5 616.5Q1263 553 1327 424L1536 0H1126L944 371Q889 483 832.5 524.0Q776 565 682 565Z" transform="translate(31.538,44.511) scale(0.000537,-0.000537)"/></g>
<circle cx="45.612" cy="37.508" r="4.703" fill="none" stroke="#8A6423" stroke-width="1.6" opacity="0.55"/>
<g fill="#2E281F"><path d="M188 1493H678L1018 694L1360 1493H1849V0H1485V1092L1141 287H897L553 1092V0H188Z" transform="translate(43.659,44.511) scale(0.000537,-0.000537)"/>
<path d="M1227 1446V1130Q1104 1185 987.0 1213.0Q870 1241 766 1241Q628 1241 562.0 1203.0Q496 1165 496 1085Q496 1025 540.5 991.5Q585 958 702 934L866 901Q1115 851 1220.0 749.0Q1325 647 1325 459Q1325 212 1178.5 91.5Q1032 -29 731 -29Q589 -29 446.0 -2.0Q303 25 160 78V403Q303 327 436.5 288.5Q570 250 694 250Q820 250 887.0 292.0Q954 334 954 412Q954 482 908.5 520.0Q863 558 727 588L578 621Q354 669 250.5 774.0Q147 879 147 1057Q147 1280 291.0 1400.0Q435 1520 705 1520Q828 1520 958.0 1501.5Q1088 1483 1227 1446Z" transform="translate(44.808,44.511) scale(0.000537,-0.000537)"/>
<path d="M10 1493H1386V1202H891V0H506V1202H10Z" transform="translate(45.640,44.511) scale(0.000537,-0.000537)"/>
<path d="M188 1493H573V291H1249V0H188Z" transform="translate(46.830,44.511) scale(0.000537,-0.000537)"/></g>
<g fill="#2E281F"><path d="M188 1493H678L1018 694L1360 1493H1849V0H1485V1092L1141 287H897L553 1092V0H188Z" transform="translate(43.699,44.511) scale(0.000537,-0.000537)"/>
<path d="M1227 1446V1130Q1104 1185 987.0 1213.0Q870 1241 766 1241Q628 1241 562.0 1203.0Q496 1165 496 1085Q496 1025 540.5 991.5Q585 958 702 934L866 901Q1115 851 1220.0 749.0Q1325 647 1325 459Q1325 212 1178.5 91.5Q1032 -29 731 -29Q589 -29 446.0 -2.0Q303 25 160 78V403Q303 327 436.5 288.5Q570 250 694 250Q820 250 887.0 292.0Q954 334 954 412Q954 482 908.5 520.0Q863 558 727 588L578 621Q354 669 250.5 774.0Q147 879 147 1057Q147 1280 291.0 1400.0Q435 1520 705 1520Q828 1520 958.0 1501.5Q1088 1483 1227 1446Z" transform="translate(44.848,44.511) scale(0.000537,-0.000537)"/>
<path d="M10 1493H1386V1202H891V0H506V1202H10Z" transform="translate(45.680,44.511) scale(0.000537,-0.000537)"/>
<path d="M188 1493H573V291H1249V0H188Z" transform="translate(46.870,44.511) scale(0.000537,-0.000537)"/></g>
<circle cx="60.717" cy="37.508" r="4.703" fill="none" stroke="#8A6423" stroke-width="1.6" opacity="0.55"/>
<g fill="#2E281F"><path d="M188 1493H678L1018 694L1360 1493H1849V0H1485V1092L1141 287H897L553 1092V0H188Z" transform="translate(58.687,44.511) scale(0.000537,-0.000537)"/>
<path d="M1227 1446V1130Q1104 1185 987.0 1213.0Q870 1241 766 1241Q628 1241 562.0 1203.0Q496 1165 496 1085Q496 1025 540.5 991.5Q585 958 702 934L866 901Q1115 851 1220.0 749.0Q1325 647 1325 459Q1325 212 1178.5 91.5Q1032 -29 731 -29Q589 -29 446.0 -2.0Q303 25 160 78V403Q303 327 436.5 288.5Q570 250 694 250Q820 250 887.0 292.0Q954 334 954 412Q954 482 908.5 520.0Q863 558 727 588L578 621Q354 669 250.5 774.0Q147 879 147 1057Q147 1280 291.0 1400.0Q435 1520 705 1520Q828 1520 958.0 1501.5Q1088 1483 1227 1446Z" transform="translate(59.836,44.511) scale(0.000537,-0.000537)"/>
<path d="M10 1493H1386V1202H891V0H506V1202H10Z" transform="translate(60.668,44.511) scale(0.000537,-0.000537)"/>
<path d="M735 831Q856 831 908.5 876.0Q961 921 961 1024Q961 1126 908.5 1170.0Q856 1214 735 1214H573V831ZM573 565V0H188V1493H776Q1071 1493 1208.5 1394.0Q1346 1295 1346 1081Q1346 933 1274.5 838.0Q1203 743 1059 698Q1138 680 1200.5 616.5Q1263 553 1327 424L1536 0H1126L944 371Q889 483 832.5 524.0Q776 565 682 565Z" transform="translate(61.858,44.511) scale(0.000537,-0.000537)"/></g>
<g fill="#2E281F"><path d="M188 1493H678L1018 694L1360 1493H1849V0H1485V1092L1141 287H897L553 1092V0H188Z" transform="translate(58.727,44.511) scale(0.000537,-0.000537)"/>
<path d="M1227 1446V1130Q1104 1185 987.0 1213.0Q870 1241 766 1241Q628 1241 562.0 1203.0Q496 1165 496 1085Q496 1025 540.5 991.5Q585 958 702 934L866 901Q1115 851 1220.0 749.0Q1325 647 1325 459Q1325 212 1178.5 91.5Q1032 -29 731 -29Q589 -29 446.0 -2.0Q303 25 160 78V403Q303 327 436.5 288.5Q570 250 694 250Q820 250 887.0 292.0Q954 334 954 412Q954 482 908.5 520.0Q863 558 727 588L578 621Q354 669 250.5 774.0Q147 879 147 1057Q147 1280 291.0 1400.0Q435 1520 705 1520Q828 1520 958.0 1501.5Q1088 1483 1227 1446Z" transform="translate(59.876,44.511) scale(0.000537,-0.000537)"/>
<path d="M10 1493H1386V1202H891V0H506V1202H10Z" transform="translate(60.708,44.511) scale(0.000537,-0.000537)"/>
<path d="M735 831Q856 831 908.5 876.0Q961 921 961 1024Q961 1126 908.5 1170.0Q856 1214 735 1214H573V831ZM573 565V0H188V1493H776Q1071 1493 1208.5 1394.0Q1346 1295 1346 1081Q1346 933 1274.5 838.0Q1203 743 1059 698Q1138 680 1200.5 616.5Q1263 553 1327 424L1536 0H1126L944 371Q889 483 832.5 524.0Q776 565 682 565Z" transform="translate(61.898,44.511) scale(0.000537,-0.000537)"/></g>
<line x1="10.500" y1="80.278" x2="65.620" y2="80.278" stroke="#8A7F6A" stroke-width="0.25" stroke-dasharray="0.6,0.6" opacity="0.6"/>
<g fill="#4A4438"><path d="M188 1493H1227V1202H573V924H1188V633H573V0H188Z" transform="translate(26.860,81.058) scale(0.000732,-0.000732)"/>
<path d="M870 1241Q694 1241 597.0 1111.0Q500 981 500 745Q500 510 597.0 380.0Q694 250 870 250Q1047 250 1144.0 380.0Q1241 510 1241 745Q1241 981 1144.0 1111.0Q1047 1241 870 1241ZM870 1520Q1230 1520 1434.0 1314.0Q1638 1108 1638 745Q1638 383 1434.0 177.0Q1230 -29 870 -29Q511 -29 306.5 177.0Q102 383 102 745Q102 1108 306.5 1314.0Q511 1520 870 1520Z" transform="translate(27.936,81.058) scale(0.000732,-0.000732)"/>
<path d="M735 831Q856 831 908.5 876.0Q961 921 961 1024Q961 1126 908.5 1170.0Q856 1214 735 1214H573V831ZM573 565V0H188V1493H776Q1071 1493 1208.5 1394.0Q1346 1295 1346 1081Q1346 933 1274.5 838.0Q1203 743 1059 698Q1138 680 1200.5 616.5Q1263 553 1327 424L1536 0H1126L944 371Q889 483 832.5 524.0Q776 565 682 565Z" transform="translate(29.275,81.058) scale(0.000732,-0.000732)"/>
<path d="M229 1120H590V733H229ZM229 387H590V0H229Z" transform="translate(30.488,81.058) scale(0.000732,-0.000732)"/>
<path d="M1372 82Q1266 27 1151.0 -1.0Q1036 -29 911 -29Q538 -29 320.0 179.5Q102 388 102 745Q102 1103 320.0 1311.5Q538 1520 911 1520Q1036 1520 1151.0 1492.0Q1266 1464 1372 1409V1100Q1265 1173 1161.0 1207.0Q1057 1241 942 1241Q736 1241 618.0 1109.0Q500 977 500 745Q500 514 618.0 382.0Q736 250 942 250Q1057 250 1161.0 284.0Q1265 318 1372 391Z" transform="translate(31.666,81.058) scale(0.000732,-0.000732)"/>
<path d="M870 1241Q694 1241 597.0 1111.0Q500 981 500 745Q500 510 597.0 380.0Q694 250 870 250Q1047 250 1144.0 380.0Q1241 510 1241 745Q1241 981 1144.0 1111.0Q1047 1241 870 1241ZM870 1520Q1230 1520 1434.0 1314.0Q1638 1108 1638 745Q1638 383 1434.0 177.0Q1230 -29 870 -29Q511 -29 306.5 177.0Q102 383 102 745Q102 1108 306.5 1314.0Q511 1520 870 1520Z" transform="translate(32.822,81.058) scale(0.000732,-0.000732)"/>
<path d="M188 1493H678L1018 694L1360 1493H1849V0H1485V1092L1141 287H897L553 1092V0H188Z" transform="translate(34.161,81.058) scale(0.000732,-0.000732)"/>
<path d="M188 1493H678L1018 694L1360 1493H1849V0H1485V1092L1141 287H897L553 1092V0H188Z" transform="translate(35.728,81.058) scale(0.000732,-0.000732)"/>
<path d="M1094 272H492L397 0H10L563 1493H1022L1575 0H1188ZM588 549H997L793 1143Z" transform="translate(37.295,81.058) scale(0.000732,-0.000732)"/>
<path d="M188 1493H618L1161 469V1493H1526V0H1096L553 1024V0H188Z" transform="translate(38.514,81.058) scale(0.000732,-0.000732)"/>
<path d="M573 1202V291H711Q947 291 1071.5 408.0Q1196 525 1196 748Q1196 970 1072.0 1086.0Q948 1202 711 1202ZM188 1493H594Q934 1493 1100.5 1444.5Q1267 1396 1386 1280Q1491 1179 1542.0 1047.0Q1593 915 1593 748Q1593 579 1542.0 446.5Q1491 314 1386 213Q1266 97 1098.0 48.5Q930 0 594 0H188Z" transform="translate(39.832,81.058) scale(0.000732,-0.000732)"/>
<path d="M188 1493H678L1018 694L1360 1493H1849V0H1485V1092L1141 287H897L553 1092V0H188Z" transform="translate(41.688,81.058) scale(0.000732,-0.000732)"/>
<path d="M870 1241Q694 1241 597.0 1111.0Q500 981 500 745Q500 510 597.0 380.0Q694 250 870 250Q1047 250 1144.0 380.0Q1241 510 1241 745Q1241 981 1144.0 1111.0Q1047 1241 870 1241ZM870 1520Q1230 1520 1434.0 1314.0Q1638 1108 1638 745Q1638 383 1434.0 177.0Q1230 -29 870 -29Q511 -29 306.5 177.0Q102 383 102 745Q102 1108 306.5 1314.0Q511 1520 870 1520Z" transform="translate(43.255,81.058) scale(0.000732,-0.000732)"/>
<path d="M573 1202V291H711Q947 291 1071.5 408.0Q1196 525 1196 748Q1196 970 1072.0 1086.0Q948 1202 711 1202ZM188 1493H594Q934 1493 1100.5 1444.5Q1267 1396 1386 1280Q1491 1179 1542.0 1047.0Q1593 915 1593 748Q1593 579 1542.0 446.5Q1491 314 1386 213Q1266 97 1098.0 48.5Q930 0 594 0H188Z" transform="translate(44.594,81.058) scale(0.000732,-0.000732)"/>
<path d="M188 1493H573V598Q573 413 633.5 333.5Q694 254 831 254Q969 254 1029.5 333.5Q1090 413 1090 598V1493H1475V598Q1475 281 1316.0 126.0Q1157 -29 831 -29Q506 -29 347.0 126.0Q188 281 188 598Z" transform="translate(45.902,81.058) scale(0.000732,-0.000732)"/>
<path d="M188 1493H573V291H1249V0H188Z" transform="translate(47.180,81.058) scale(0.000732,-0.000732)"/>
<path d="M188 1493H1227V1202H573V924H1188V633H573V291H1249V0H188Z" transform="translate(48.184,81.058) scale(0.000732,-0.000732)"/></g>
<g fill="#4A4438"><path d="M188 1493H1227V1202H573V924H1188V633H573V0H188Z" transform="translate(26.900,81.058) scale(0.000732,-0.000732)"/>
<path d="M870 1241Q694 1241 597.0 1111.0Q500 981 500 745Q500 510 597.0 380.0Q694 250 870 250Q1047 250 1144.0 380.0Q1241 510 1241 745Q1241 981 1144.0 1111.0Q1047 1241 870 1241ZM870 1520Q1230 1520 1434.0 1314.0Q1638 1108 1638 745Q1638 383 1434.0 177.0Q1230 -29 870 -29Q511 -29 306.5 177.0Q102 383 102 745Q102 1108 306.5 1314.0Q511 1520 870 1520Z" transform="translate(27.976,81.058) scale(0.000732,-0.000732)"/>
<path d="M735 831Q856 831 908.5 876.0Q961 921 961 1024Q961 1126 908.5 1170.0Q856 1214 735 1214H573V831ZM573 565V0H188V1493H776Q1071 1493 1208.5 1394.0Q1346 1295 1346 1081Q1346 933 1274.5 838.0Q1203 743 1059 698Q1138 680 1200.5 616.5Q1263 553 1327 424L1536 0H1126L944 371Q889 483 832.5 524.0Q776 565 682 565Z" transform="translate(29.315,81.058) scale(0.000732,-0.000732)"/>
<path d="M229 1120H590V733H229ZM229 387H590V0H229Z" transform="translate(30.528,81.058) scale(0.000732,-0.000732)"/>
<path d="M1372 82Q1266 27 1151.0 -1.0Q1036 -29 911 -29Q538 -29 320.0 179.5Q102 388 102 745Q102 1103 320.0 1311.5Q538 1520 911 1520Q1036 1520 1151.0 1492.0Q1266 1464 1372 1409V1100Q1265 1173 1161.0 1207.0Q1057 1241 942 1241Q736 1241 618.0 1109.0Q500 977 500 745Q500 514 618.0 382.0Q736 250 942 250Q1057 250 1161.0 284.0Q1265 318 1372 391Z" transform="translate(31.706,81.058) scale(0.000732,-0.000732)"/>
<path d="M870 1241Q694 1241 597.0 1111.0Q500 981 500 745Q500 510 597.0 380.0Q694 250 870 250Q1047 250 1144.0 380.0Q1241 510 1241 745Q1241 981 1144.0 1111.0Q1047 1241 870 1241ZM870 1520Q1230 1520 1434.0 1314.0Q1638 1108 1638 745Q1638 383 1434.0 177.0Q1230 -29 870 -29Q511 -29 306.5 177.0Q102 383 102 745Q102 1108 306.5 1314.0Q511 1520 870 1520Z" transform="translate(32.862,81.058) scale(0.000732,-0.000732)"/>
<path d="M188 1493H678L1018 694L1360 1493H1849V0H1485V1092L1141 287H897L553 1092V0H188Z" transform="translate(34.201,81.058) scale(0.000732,-0.000732)"/>
<path d="M188 1493H678L1018 694L1360 1493H1849V0H1485V1092L1141 287H897L553 1092V0H188Z" transform="translate(35.768,81.058) scale(0.000732,-0.000732)"/>
<path d="M1094 272H492L397 0H10L563 1493H1022L1575 0H1188ZM588 549H997L793 1143Z" transform="translate(37.335,81.058) scale(0.000732,-0.000732)"/>
<path d="M188 1493H618L1161 469V1493H1526V0H1096L553 1024V0H188Z" transform="translate(38.554,81.058) scale(0.000732,-0.000732)"/>
<path d="M573 1202V291H711Q947 291 1071.5 408.0Q1196 525 1196 748Q1196 970 1072.0 1086.0Q948 1202 711 1202ZM188 1493H594Q934 1493 1100.5 1444.5Q1267 1396 1386 1280Q1491 1179 1542.0 1047.0Q1593 915 1593 748Q1593 579 1542.0 446.5Q1491 314 1386 213Q1266 97 1098.0 48.5Q930 0 594 0H188Z" transform="translate(39.872,81.058) scale(0.000732,-0.000732)"/>
<path d="M188 1493H678L1018 694L1360 1493H1849V0H1485V1092L1141 287H897L553 1092V0H188Z" transform="translate(41.728,81.058) scale(0.000732,-0.000732)"/>
<path d="M870 1241Q694 1241 597.0 1111.0Q500 981 500 745Q500 510 597.0 380.0Q694 250 870 250Q1047 250 1144.0 380.0Q1241 510 1241 745Q1241 981 1144.0 1111.0Q1047 1241 870 1241ZM870 1520Q1230 1520 1434.0 1314.0Q1638 1108 1638 745Q1638 383 1434.0 177.0Q1230 -29 870 -29Q511 -29 306.5 177.0Q102 383 102 745Q102 1108 306.5 1314.0Q511 1520 870 1520Z" transform="translate(43.295,81.058) scale(0.000732,-0.000732)"/>
<path d="M573 1202V291H711Q947 291 1071.5 408.0Q1196 525 1196 748Q1196 970 1072.0 1086.0Q948 1202 711 1202ZM188 1493H594Q934 1493 1100.5 1444.5Q1267 1396 1386 1280Q1491 1179 1542.0 1047.0Q1593 915 1593 748Q1593 579 1542.0 446.5Q1491 314 1386 213Q1266 97 1098.0 48.5Q930 0 594 0H188Z" transform="translate(44.634,81.058) scale(0.000732,-0.000732)"/>
<path d="M188 1493H573V598Q573 413 633.5 333.5Q694 254 831 254Q969 254 1029.5 333.5Q1090 413 1090 598V1493H1475V598Q1475 281 1316.0 126.0Q1157 -29 831 -29Q506 -29 347.0 126.0Q188 281 188 598Z" transform="translate(45.942,81.058) scale(0.000732,-0.000732)"/>
<path d="M188 1493H573V291H1249V0H188Z" transform="translate(47.220,81.058) scale(0.000732,-0.000732)"/>
<path d="M188 1493H1227V1202H573V924H1188V633H573V291H1249V0H188Z" transform="translate(48.224,81.058) scale(0.000732,-0.000732)"/></g>
<circle cx="16.640" cy="61.855" r="4.703" fill="none" stroke="#8A6423" stroke-width="1.6" opacity="0.55"/>
<g fill="#2A2620"><path d="M10 1493H1386V1202H891V0H506V1202H10Z" transform="translate(13.331,69.458) scale(0.000928,-0.000928)"/>
<path d="M735 831Q856 831 908.5 876.0Q961 921 961 1024Q961 1126 908.5 1170.0Q856 1214 735 1214H573V831ZM573 565V0H188V1493H776Q1071 1493 1208.5 1394.0Q1346 1295 1346 1081Q1346 933 1274.5 838.0Q1203 743 1059 698Q1138 680 1200.5 616.5Q1263 553 1327 424L1536 0H1126L944 371Q889 483 832.5 524.0Q776 565 682 565Z" transform="translate(14.692,69.458) scale(0.000928,-0.000928)"/>
<path d="M1530 111Q1386 41 1231.0 6.0Q1076 -29 911 -29Q538 -29 320.0 179.5Q102 388 102 745Q102 1106 324.0 1313.0Q546 1520 932 1520Q1081 1520 1217.5 1492.0Q1354 1464 1475 1409V1100Q1350 1171 1226.5 1206.0Q1103 1241 979 1241Q749 1241 624.5 1112.5Q500 984 500 745Q500 508 620.0 379.0Q740 250 961 250Q1021 250 1072.5 257.5Q1124 265 1165 281V571H930V829H1530Z" transform="translate(16.228,69.458) scale(0.000928,-0.000928)"/>
<path d="M240 266H580V1231L231 1159V1421L578 1493H944V266H1284V0H240Z" transform="translate(18.560,69.458) scale(0.000928,-0.000928)"/></g>
<g fill="#2A2620"><path d="M10 1493H1386V1202H891V0H506V1202H10Z" transform="translate(13.371,69.458) scale(0.000928,-0.000928)"/>
<path d="M735 831Q856 831 908.5 876.0Q961 921 961 1024Q961 1126 908.5 1170.0Q856 1214 735 1214H573V831ZM573 565V0H188V1493H776Q1071 1493 1208.5 1394.0Q1346 1295 1346 1081Q1346 933 1274.5 838.0Q1203 743 1059 698Q1138 680 1200.5 616.5Q1263 553 1327 424L1536 0H1126L944 371Q889 483 832.5 524.0Q776 565 682 565Z" transform="translate(14.732,69.458) scale(0.000928,-0.000928)"/>
<path d="M1530 111Q1386 41 1231.0 6.0Q1076 -29 911 -29Q538 -29 320.0 179.5Q102 388 102 745Q102 1106 324.0 1313.0Q546 1520 932 1520Q1081 1520 1217.5 1492.0Q1354 1464 1475 1409V1100Q1350 1171 1226.5 1206.0Q1103 1241 979 1241Q749 1241 624.5 1112.5Q500 984 500 745Q500 508 620.0 379.0Q740 250 961 250Q1021 250 1072.5 257.5Q1124 265 1165 281V571H930V829H1530Z" transform="translate(16.268,69.458) scale(0.000928,-0.000928)"/>
<path d="M240 266H580V1231L231 1159V1421L578 1493H944V266H1284V0H240Z" transform="translate(18.600,69.458) scale(0.000928,-0.000928)"/></g>
<rect x="14.340" y="70.758" width="4.600" height="4.600" rx="0.5" fill="none" stroke="#4A6FA5" stroke-width="0.45" opacity="0.6"/>
<g fill="#2E281F"><path d="M735 831Q856 831 908.5 876.0Q961 921 961 1024Q961 1126 908.5 1170.0Q856 1214 735 1214H573V831ZM573 565V0H188V1493H776Q1071 1493 1208.5 1394.0Q1346 1295 1346 1081Q1346 933 1274.5 838.0Q1203 743 1059 698Q1138 680 1200.5 616.5Q1263 553 1327 424L1536 0H1126L944 371Q889 483 832.5 524.0Q776 565 682 565Z" transform="translate(14.196,78.258) scale(0.000781,-0.000781)"/>
<path d="M1094 272H492L397 0H10L563 1493H1022L1575 0H1188ZM588 549H997L793 1143Z" transform="translate(15.490,78.258) scale(0.000781,-0.000781)"/>
<path d="M10 1493H1386V1202H891V0H506V1202H10Z" transform="translate(16.790,78.258) scale(0.000781,-0.000781)"/>
<path d="M188 1493H1227V1202H573V924H1188V633H573V291H1249V0H188Z" transform="translate(17.936,78.258) scale(0.000781,-0.000781)"/></g>
<g fill="#2E281F"><path d="M735 831Q856 831 908.5 876.0Q961 921 961 1024Q961 1126 908.5 1170.0Q856 1214 735 1214H573V831ZM573 565V0H188V1493H776Q1071 1493 1208.5 1394.0Q1346 1295 1346 1081Q1346 933 1274.5 838.0Q1203 743 1059 698Q1138 680 1200.5 616.5Q1263 553 1327 424L1536 0H1126L944 371Q889 483 832.5 524.0Q776 565 682 565Z" transform="translate(14.236,78.258) scale(0.000781,-0.000781)"/>
<path d="M1094 272H492L397 0H10L563 1493H1022L1575 0H1188ZM588 549H997L793 1143Z" transform="translate(15.530,78.258) scale(0.000781,-0.000781)"/>
<path d="M10 1493H1386V1202H891V0H506V1202H10Z" transform="translate(16.830,78.258) scale(0.000781,-0.000781)"/>
<path d="M188 1493H1227V1202H573V924H1188V633H573V291H1249V0H188Z" transform="translate(17.976,78.258) scale(0.000781,-0.000781)"/></g>
<rect x="14.340" y="82.358" width="4.600" height="4.600" rx="0.5" fill="none" stroke="#1D7A5C" stroke-width="0.45" opacity="0.6"/>
<g fill="#2E281F"><path d="M573 1202V291H711Q947 291 1071.5 408.0Q1196 525 1196 748Q1196 970 1072.0 1086.0Q948 1202 711 1202ZM188 1493H594Q934 1493 1100.5 1444.5Q1267 1396 1386 1280Q1491 1179 1542.0 1047.0Q1593 915 1593 748Q1593 579 1542.0 446.5Q1491 314 1386 213Q1266 97 1098.0 48.5Q930 0 594 0H188Z" transform="translate(13.477,89.858) scale(0.000781,-0.000781)"/>
<path d="M188 1493H1227V1202H573V924H1188V633H573V291H1249V0H188Z" transform="translate(14.872,89.858) scale(0.000781,-0.000781)"/>
<path d="M188 1493H827Q1112 1493 1264.5 1366.5Q1417 1240 1417 1006Q1417 771 1264.5 644.5Q1112 518 827 518H573V0H188ZM573 1214V797H786Q898 797 959.0 851.5Q1020 906 1020 1006Q1020 1106 959.0 1160.0Q898 1214 786 1214Z" transform="translate(16.019,89.858) scale(0.000781,-0.000781)"/>
<path d="M10 1493H1386V1202H891V0H506V1202H10Z" transform="translate(17.251,89.858) scale(0.000781,-0.000781)"/>
<path d="M188 1493H573V924H1141V1493H1526V0H1141V633H573V0H188Z" transform="translate(18.397,89.858) scale(0.000781,-0.000781)"/></g>
<g fill="#2E281F"><path d="M573 1202V291H711Q947 291 1071.5 408.0Q1196 525 1196 748Q1196 970 1072.0 1086.0Q948 1202 711 1202ZM188 1493H594Q934 1493 1100.5 1444.5Q1267 1396 1386 1280Q1491 1179 1542.0 1047.0Q1593 915 1593 748Q1593 579 1542.0 446.5Q1491 314 1386 213Q1266 97 1098.0 48.5Q930 0 594 0H188Z" transform="translate(13.517,89.858) scale(0.000781,-0.000781)"/>
<path d="M188 1493H1227V1202H573V924H1188V633H573V291H1249V0H188Z" transform="translate(14.912,89.858) scale(0.000781,-0.000781)"/>
<path d="M188 1493H827Q1112 1493 1264.5 1366.5Q1417 1240 1417 1006Q1417 771 1264.5 644.5Q1112 518 827 518H573V0H188ZM573 1214V797H786Q898 797 959.0 851.5Q1020 906 1020 1006Q1020 1106 959.0 1160.0Q898 1214 786 1214Z" transform="translate(16.059,89.858) scale(0.000781,-0.000781)"/>
<path d="M10 1493H1386V1202H891V0H506V1202H10Z" transform="translate(17.291,89.858) scale(0.000781,-0.000781)"/>
<path d="M188 1493H573V924H1141V1493H1526V0H1141V633H573V0H188Z" transform="translate(18.437,89.858) scale(0.000781,-0.000781)"/></g>
<line x1="23.780" y1="56.653" x2="23.780" y2="90.658" stroke="#8A7F6A" stroke-width="0.3" opacity="0.5"/>
<circle cx="30.920" cy="61.855" r="4.703" fill="none" stroke="#8A6423" stroke-width="1.6" opacity="0.55"/>
<g fill="#2A2620"><path d="M10 1493H1386V1202H891V0H506V1202H10Z" transform="translate(27.611,69.458) scale(0.000928,-0.000928)"/>
<path d="M735 831Q856 831 908.5 876.0Q961 921 961 1024Q961 1126 908.5 1170.0Q856 1214 735 1214H573V831ZM573 565V0H188V1493H776Q1071 1493 1208.5 1394.0Q1346 1295 1346 1081Q1346 933 1274.5 838.0Q1203 743 1059 698Q1138 680 1200.5 616.5Q1263 553 1327 424L1536 0H1126L944 371Q889 483 832.5 524.0Q776 565 682 565Z" transform="translate(28.972,69.458) scale(0.000928,-0.000928)"/>
<path d="M1530 111Q1386 41 1231.0 6.0Q1076 -29 911 -29Q538 -29 320.0 179.5Q102 388 102 745Q102 1106 324.0 1313.0Q546 1520 932 1520Q1081 1520 1217.5 1492.0Q1354 1464 1475 1409V1100Q1350 1171 1226.5 1206.0Q1103 1241 979 1241Q749 1241 624.5 1112.5Q500 984 500 745Q500 508 620.0 379.0Q740 250 961 250Q1021 250 1072.5 257.5Q1124 265 1165 281V571H930V829H1530Z" transform="translate(30.508,69.458) scale(0.000928,-0.000928)"/>
<path d="M590 283H1247V0H162V283L707 764Q780 830 815.0 893.0Q850 956 850 1024Q850 1129 779.5 1193.0Q709 1257 592 1257Q502 1257 395.0 1218.5Q288 1180 166 1104V1432Q296 1475 423.0 1497.5Q550 1520 672 1520Q940 1520 1088.5 1402.0Q1237 1284 1237 1073Q1237 951 1174.0 845.5Q1111 740 909 563Z" transform="translate(32.840,69.458) scale(0.000928,-0.000928)"/></g>
<g fill="#2A2620"><path d="M10 1493H1386V1202H891V0H506V1202H10Z" transform="translate(27.651,69.458) scale(0.000928,-0.000928)"/>
<path d="M735 831Q856 831 908.5 876.0Q961 921 961 1024Q961 1126 908.5 1170.0Q856 1214 735 1214H573V831ZM573 565V0H188V1493H776Q1071 1493 1208.5 1394.0Q1346 1295 1346 1081Q1346 933 1274.5 838.0Q1203 743 1059 698Q1138 680 1200.5 616.5Q1263 553 1327 424L1536 0H1126L944 371Q889 483 832.5 524.0Q776 565 682 565Z" transform="translate(29.012,69.458) scale(0.000928,-0.000928)"/>
<path d="M1530 111Q1386 41 1231.0 6.0Q1076 -29 911 -29Q538 -29 320.0 179.5Q102 388 102 745Q102 1106 324.0 1313.0Q546 1520 932 1520Q1081 1520 1217.5 1492.0Q1354 1464 1475 1409V1100Q1350 1171 1226.5 1206.0Q1103 1241 979 1241Q749 1241 624.5 1112.5Q500 984 500 745Q500 508 620.0 379.0Q740 250 961 250Q1021 250 1072.5 257.5Q1124 265 1165 281V571H930V829H1530Z" transform="translate(30.548,69.458) scale(0.000928,-0.000928)"/>
<path d="M590 283H1247V0H162V283L707 764Q780 830 815.0 893.0Q850 956 850 1024Q850 1129 779.5 1193.0Q709 1257 592 1257Q502 1257 395.0 1218.5Q288 1180 166 1104V1432Q296 1475 423.0 1497.5Q550 1520 672 1520Q940 1520 1088.5 1402.0Q1237 1284 1237 1073Q1237 951 1174.0 845.5Q1111 740 909 563Z" transform="translate(32.880,69.458) scale(0.000928,-0.000928)"/></g>
<rect x="28.620" y="70.758" width="4.600" height="4.600" rx="0.5" fill="none" stroke="#4A6FA5" stroke-width="0.45" opacity="0.6"/>
<g fill="#2E281F"><path d="M735 831Q856 831 908.5 876.0Q961 921 961 1024Q961 1126 908.5 1170.0Q856 1214 735 1214H573V831ZM573 565V0H188V1493H776Q1071 1493 1208.5 1394.0Q1346 1295 1346 1081Q1346 933 1274.5 838.0Q1203 743 1059 698Q1138 680 1200.5 616.5Q1263 553 1327 424L1536 0H1126L944 371Q889 483 832.5 524.0Q776 565 682 565Z" transform="translate(28.476,78.258) scale(0.000781,-0.000781)"/>
<path d="M1094 272H492L397 0H10L563 1493H1022L1575 0H1188ZM588 549H997L793 1143Z" transform="translate(29.770,78.258) scale(0.000781,-0.000781)"/>
<path d="M10 1493H1386V1202H891V0H506V1202H10Z" transform="translate(31.070,78.258) scale(0.000781,-0.000781)"/>
<path d="M188 1493H1227V1202H573V924H1188V633H573V291H1249V0H188Z" transform="translate(32.216,78.258) scale(0.000781,-0.000781)"/></g>
<g fill="#2E281F"><path d="M735 831Q856 831 908.5 876.0Q961 921 961 1024Q961 1126 908.5 1170.0Q856 1214 735 1214H573V831ZM573 565V0H188V1493H776Q1071 1493 1208.5 1394.0Q1346 1295 1346 1081Q1346 933 1274.5 838.0Q1203 743 1059 698Q1138 680 1200.5 616.5Q1263 553 1327 424L1536 0H1126L944 371Q889 483 832.5 524.0Q776 565 682 565Z" transform="translate(28.516,78.258) scale(0.000781,-0.000781)"/>
<path d="M1094 272H492L397 0H10L563 1493H1022L1575 0H1188ZM588 549H997L793 1143Z" transform="translate(29.810,78.258) scale(0.000781,-0.000781)"/>
<path d="M10 1493H1386V1202H891V0H506V1202H10Z" transform="translate(31.110,78.258) scale(0.000781,-0.000781)"/>
<path d="M188 1493H1227V1202H573V924H1188V633H573V291H1249V0H188Z" transform="translate(32.256,78.258) scale(0.000781,-0.000781)"/></g>
<rect x="28.620" y="82.358" width="4.600" height="4.600" rx="0.5" fill="none" stroke="#1D7A5C" stroke-width="0.45" opacity="0.6"/>
<g fill="#2E281F"><path d="M573 1202V291H711Q947 291 1071.5 408.0Q1196 525 1196 748Q1196 970 1072.0 1086.0Q948 1202 711 1202ZM188 1493H594Q934 1493 1100.5 1444.5Q1267 1396 1386 1280Q1491 1179 1542.0 1047.0Q1593 915 1593 748Q1593 579 1542.0 446.5Q1491 314 1386 213Q1266 97 1098.0 48.5Q930 0 594 0H188Z" transform="translate(27.757,89.858) scale(0.000781,-0.000781)"/>
<path d="M188 1493H1227V1202H573V924H1188V633H573V291H1249V0H188Z" transform="translate(29.152,89.858) scale(0.000781,-0.000781)"/>
<path d="M188 1493H827Q1112 1493 1264.5 1366.5Q1417 1240 1417 1006Q1417 771 1264.5 644.5Q1112 518 827 518H573V0H188ZM573 1214V797H786Q898 797 959.0 851.5Q1020 906 1020 1006Q1020 1106 959.0 1160.0Q898 1214 786 1214Z" transform="translate(30.299,89.858) scale(0.000781,-0.000781)"/>
<path d="M10 1493H1386V1202H891V0H506V1202H10Z" transform="translate(31.531,89.858) scale(0.000781,-0.000781)"/>
<path d="M188 1493H573V924H1141V1493H1526V0H1141V633H573V0H188Z" transform="translate(32.677,89.858) scale(0.000781,-0.000781)"/></g>
<g fill="#2E281F"><path d="M573 1202V291H711Q947 291 1071.5 408.0Q1196 525 1196 748Q1196 970 1072.0 1086.0Q948 1202 711 1202ZM188 1493H594Q934 1493 1100.5 1444.5Q1267 1396 1386 1280Q1491 1179 1542.0 1047.0Q1593 915 1593 748Q1593 579 1542.0 446.5Q1491 314 1386 213Q1266 97 1098.0 48.5Q930 0 594 0H188Z" transform="translate(27.797,89.858) scale(0.000781,-0.000781)"/>
<path d="M188 1493H1227V1202H573V924H1188V633H573V291H1249V0H188Z" transform="translate(29.192,89.858) scale(0.000781,-0.000781)"/>
<path d="M188 1493H827Q1112 1493 1264.5 1366.5Q1417 1240 1417 1006Q1417 771 1264.5 644.5Q1112 518 827 518H573V0H188ZM573 1214V797H786Q898 797 959.0 851.5Q1020 906 1020 1006Q1020 1106 959.0 1160.0Q898 1214 786 1214Z" transform="translate(30.339,89.858) scale(0.000781,-0.000781)"/>
<path d="M10 1493H1386V1202H891V0H506V1202H10Z" transform="translate(31.571,89.858) scale(0.000781,-0.000781)"/>
<path d="M188 1493H573V924H1141V1493H1526V0H1141V633H573V0H188Z" transform="translate(32.717,89.858) scale(0.000781,-0.000781)"/></g>
<line x1="38.060" y1="56.653" x2="38.060" y2="90.658" stroke="#8A7F6A" stroke-width="0.3" opacity="0.5"/>
<circle cx="45.200" cy="61.855" r="4.703" fill="none" stroke="#8A6423" stroke-width="1.6" opacity="0.55"/>
<g fill="#2A2620"><path d="M10 1493H1386V1202H891V0H506V1202H10Z" transform="translate(41.891,69.458) scale(0.000928,-0.000928)"/>
<path d="M735 831Q856 831 908.5 876.0Q961 921 961 1024Q961 1126 908.5 1170.0Q856 1214 735 1214H573V831ZM573 565V0H188V1493H776Q1071 1493 1208.5 1394.0Q1346 1295 1346 1081Q1346 933 1274.5 838.0Q1203 743 1059 698Q1138 680 1200.5 616.5Q1263 553 1327 424L1536 0H1126L944 371Q889 483 832.5 524.0Q776 565 682 565Z" transform="translate(43.252,69.458) scale(0.000928,-0.000928)"/>
<path d="M1530 111Q1386 41 1231.0 6.0Q1076 -29 911 -29Q538 -29 320.0 179.5Q102 388 102 745Q102 1106 324.0 1313.0Q546 1520 932 1520Q1081 1520 1217.5 1492.0Q1354 1464 1475 1409V1100Q1350 1171 1226.5 1206.0Q1103 1241 979 1241Q749 1241 624.5 1112.5Q500 984 500 745Q500 508 620.0 379.0Q740 250 961 250Q1021 250 1072.5 257.5Q1124 265 1165 281V571H930V829H1530Z" transform="translate(44.788,69.458) scale(0.000928,-0.000928)"/>
<path d="M954 805Q1105 766 1183.5 669.5Q1262 573 1262 424Q1262 202 1092.0 86.5Q922 -29 596 -29Q481 -29 365.5 -10.5Q250 8 137 45V342Q245 288 351.5 260.5Q458 233 561 233Q714 233 795.5 286.0Q877 339 877 438Q877 540 793.5 592.5Q710 645 547 645H393V893H555Q700 893 771.0 938.5Q842 984 842 1077Q842 1163 773.0 1210.0Q704 1257 578 1257Q485 1257 390.0 1236.0Q295 1215 201 1174V1456Q315 1488 427.0 1504.0Q539 1520 647 1520Q938 1520 1082.5 1424.5Q1227 1329 1227 1137Q1227 1006 1158.0 922.5Q1089 839 954 805Z" transform="translate(47.120,69.458) scale(0.000928,-0.000928)"/></g>
<g fill="#2A2620"><path d="M10 1493H1386V1202H891V0H506V1202H10Z" transform="translate(41.931,69.458) scale(0.000928,-0.000928)"/>
<path d="M735 831Q856 831 908.5 876.0Q961 921 961 1024Q961 1126 908.5 1170.0Q856 1214 735 1214H573V831ZM573 565V0H188V1493H776Q1071 1493 1208.5 1394.0Q1346 1295 1346 1081Q1346 933 1274.5 838.0Q1203 743 1059 698Q1138 680 1200.5 616.5Q1263 553 1327 424L1536 0H1126L944 371Q889 483 832.5 524.0Q776 565 682 565Z" transform="translate(43.292,69.458) scale(0.000928,-0.000928)"/>
<path d="M1530 111Q1386 41 1231.0 6.0Q1076 -29 911 -29Q538 -29 320.0 179.5Q102 388 102 745Q102 1106 324.0 1313.0Q546 1520 932 1520Q1081 1520 1217.5 1492.0Q1354 1464 1475 1409V1100Q1350 1171 1226.5 1206.0Q1103 1241 979 1241Q749 1241 624.5 1112.5Q500 984 500 745Q500 508 620.0 379.0Q740 250 961 250Q1021 250 1072.5 257.5Q1124 265 1165 281V571H930V829H1530Z" transform="translate(44.828,69.458) scale(0.000928,-0.000928)"/>
<path d="M954 805Q1105 766 1183.5 669.5Q1262 573 1262 424Q1262 202 1092.0 86.5Q922 -29 596 -29Q481 -29 365.5 -10.5Q250 8 137 45V342Q245 288 351.5 260.5Q458 233 561 233Q714 233 795.5 286.0Q877 339 877 438Q877 540 793.5 592.5Q710 645 547 645H393V893H555Q700 893 771.0 938.5Q842 984 842 1077Q842 1163 773.0 1210.0Q704 1257 578 1257Q485 1257 390.0 1236.0Q295 1215 201 1174V1456Q315 1488 427.0 1504.0Q539 1520 647 1520Q938 1520 1082.5 1424.5Q1227 1329 1227 1137Q1227 1006 1158.0 922.5Q1089 839 954 805Z" transform="translate(47.160,69.458) scale(0.000928,-0.000928)"/></g>
<rect x="42.900" y="70.758" width="4.600" height="4.600" rx="0.5" fill="none" stroke="#4A6FA5" stroke-width="0.45" opacity="0.6"/>
<g fill="#2E281F"><path d="M735 831Q856 831 908.5 876.0Q961 921 961 1024Q961 1126 908.5 1170.0Q856 1214 735 1214H573V831ZM573 565V0H188V1493H776Q1071 1493 1208.5 1394.0Q1346 1295 1346 1081Q1346 933 1274.5 838.0Q1203 743 1059 698Q1138 680 1200.5 616.5Q1263 553 1327 424L1536 0H1126L944 371Q889 483 832.5 524.0Q776 565 682 565Z" transform="translate(42.756,78.258) scale(0.000781,-0.000781)"/>
<path d="M1094 272H492L397 0H10L563 1493H1022L1575 0H1188ZM588 549H997L793 1143Z" transform="translate(44.050,78.258) scale(0.000781,-0.000781)"/>
<path d="M10 1493H1386V1202H891V0H506V1202H10Z" transform="translate(45.350,78.258) scale(0.000781,-0.000781)"/>
<path d="M188 1493H1227V1202H573V924H1188V633H573V291H1249V0H188Z" transform="translate(46.496,78.258) scale(0.000781,-0.000781)"/></g>
<g fill="#2E281F"><path d="M735 831Q856 831 908.5 876.0Q961 921 961 1024Q961 1126 908.5 1170.0Q856 1214 735 1214H573V831ZM573 565V0H188V1493H776Q1071 1493 1208.5 1394.0Q1346 1295 1346 1081Q1346 933 1274.5 838.0Q1203 743 1059 698Q1138 680 1200.5 616.5Q1263 553 1327 424L1536 0H1126L944 371Q889 483 832.5 524.0Q776 565 682 565Z" transform="translate(42.796,78.258) scale(0.000781,-0.000781)"/>
<path d="M1094 272H492L397 0H10L563 1493H1022L1575 0H1188ZM588 549H997L793 1143Z" transform="translate(44.090,78.258) scale(0.000781,-0.000781)"/>
<path d="M10 1493H1386V1202H891V0H506V1202H10Z" transform="translate(45.390,78.258) scale(0.000781,-0.000781)"/>
<path d="M188 1493H1227V1202H573V924H1188V633H573V291H1249V0H188Z" transform="translate(46.536,78.258) scale(0.000781,-0.000781)"/></g>
<rect x="42.900" y="82.358" width="4.600" height="4.600" rx="0.5" fill="none" stroke="#1D7A5C" stroke-width="0.45" opacity="0.6"/>
<g fill="#2E281F"><path d="M573 1202V291H711Q947 291 1071.5 408.0Q1196 525 1196 748Q1196 970 1072.0 1086.0Q948 1202 711 1202ZM188 1493H594Q934 1493 1100.5 1444.5Q1267 1396 1386 1280Q1491 1179 1542.0 1047.0Q1593 915 1593 748Q1593 579 1542.0 446.5Q1491 314 1386 213Q1266 97 1098.0 48.5Q930 0 594 0H188Z" transform="translate(42.037,89.858) scale(0.000781,-0.000781)"/>
<path d="M188 1493H1227V1202H573V924H1188V633H573V291H1249V0H188Z" transform="translate(43.432,89.858) scale(0.000781,-0.000781)"/>
<path d="M188 1493H827Q1112 1493 1264.5 1366.5Q1417 1240 1417 1006Q1417 771 1264.5 644.5Q1112 518 827 518H573V0H188ZM573 1214V797H786Q898 797 959.0 851.5Q1020 906 1020 1006Q1020 1106 959.0 1160.0Q898 1214 786 1214Z" transform="translate(44.579,89.858) scale(0.000781,-0.000781)"/>
<path d="M10 1493H1386V1202H891V0H506V1202H10Z" transform="translate(45.811,89.858) scale(0.000781,-0.000781)"/>
<path d="M188 1493H573V924H1141V1493H1526V0H1141V633H573V0H188Z" transform="translate(46.957,89.858) scale(0.000781,-0.000781)"/></g>
<g fill="#2E281F"><path d="M573 1202V291H711Q947 291 1071.5 408.0Q1196 525 1196 748Q1196 970 1072.0 1086.0Q948 1202 711 1202ZM188 1493H594Q934 1493 1100.5 1444.5Q1267 1396 1386 1280Q1491 1179 1542.0 1047.0Q1593 915 1593 748Q1593 579 1542.0 446.5Q1491 314 1386 213Q1266 97 1098.0 48.5Q930 0 594 0H188Z" transform="translate(42.077,89.858) scale(0.000781,-0.000781)"/>
<path d="M188 1493H1227V1202H573V924H1188V633H573V291H1249V0H188Z" transform="translate(43.472,89.858) scale(0.000781,-0.000781)"/>
<path d="M188 1493H827Q1112 1493 1264.5 1366.5Q1417 1240 1417 1006Q1417 771 1264.5 644.5Q1112 518 827 518H573V0H188ZM573 1214V797H786Q898 797 959.0 851.5Q1020 906 1020 1006Q1020 1106 959.0 1160.0Q898 1214 786 1214Z" transform="translate(44.619,89.858) scale(0.000781,-0.000781)"/>
<path d="M10 1493H1386V1202H891V0H506V1202H10Z" transform="translate(45.851,89.858) scale(0.000781,-0.000781)"/>
<path d="M188 1493H573V924H1141V1493H1526V0H1141V633H573V0H188Z" transform="translate(46.997,89.858) scale(0.000781,-0.000781)"/></g>
<line x1="52.340" y1="56.653" x2="52.340" y2="90.658" stroke="#8A7F6A" stroke-width="0.3" opacity="0.5"/>
<circle cx="59.480" cy="61.855" r="4.703" fill="none" stroke="#8A6423" stroke-width="1.6" opacity="0.55"/>
<g fill="#2A2620"><path d="M10 1493H1386V1202H891V0H506V1202H10Z" transform="translate(56.171,69.458) scale(0.000928,-0.000928)"/>
<path d="M735 831Q856 831 908.5 876.0Q961 921 961 1024Q961 1126 908.5 1170.0Q856 1214 735 1214H573V831ZM573 565V0H188V1493H776Q1071 1493 1208.5 1394.0Q1346 1295 1346 1081Q1346 933 1274.5 838.0Q1203 743 1059 698Q1138 680 1200.5 616.5Q1263 553 1327 424L1536 0H1126L944 371Q889 483 832.5 524.0Q776 565 682 565Z" transform="translate(57.532,69.458) scale(0.000928,-0.000928)"/>
<path d="M1530 111Q1386 41 1231.0 6.0Q1076 -29 911 -29Q538 -29 320.0 179.5Q102 388 102 745Q102 1106 324.0 1313.0Q546 1520 932 1520Q1081 1520 1217.5 1492.0Q1354 1464 1475 1409V1100Q1350 1171 1226.5 1206.0Q1103 1241 979 1241Q749 1241 624.5 1112.5Q500 984 500 745Q500 508 620.0 379.0Q740 250 961 250Q1021 250 1072.5 257.5Q1124 265 1165 281V571H930V829H1530Z" transform="translate(59.068,69.458) scale(0.000928,-0.000928)"/>
<path d="M754 1176 332 551H754ZM690 1493H1118V551H1331V272H1118V0H754V272H92V602Z" transform="translate(61.400,69.458) scale(0.000928,-0.000928)"/></g>
<g fill="#2A2620"><path d="M10 1493H1386V1202H891V0H506V1202H10Z" transform="translate(56.211,69.458) scale(0.000928,-0.000928)"/>
<path d="M735 831Q856 831 908.5 876.0Q961 921 961 1024Q961 1126 908.5 1170.0Q856 1214 735 1214H573V831ZM573 565V0H188V1493H776Q1071 1493 1208.5 1394.0Q1346 1295 1346 1081Q1346 933 1274.5 838.0Q1203 743 1059 698Q1138 680 1200.5 616.5Q1263 553 1327 424L1536 0H1126L944 371Q889 483 832.5 524.0Q776 565 682 565Z" transform="translate(57.572,69.458) scale(0.000928,-0.000928)"/>
<path d="M1530 111Q1386 41 1231.0 6.0Q1076 -29 911 -29Q538 -29 320.0 179.5Q102 388 102 745Q102 1106 324.0 1313.0Q546 1520 932 1520Q1081 1520 1217.5 1492.0Q1354 1464 1475 1409V1100Q1350 1171 1226.5 1206.0Q1103 1241 979 1241Q749 1241 624.5 1112.5Q500 984 500 745Q500 508 620.0 379.0Q740 250 961 250Q1021 250 1072.5 257.5Q1124 265 1165 281V571H930V829H1530Z" transform="translate(59.108,69.458) scale(0.000928,-0.000928)"/>
<path d="M754 1176 332 551H754ZM690 1493H1118V551H1331V272H1118V0H754V272H92V602Z" transform="translate(61.440,69.458) scale(0.000928,-0.000928)"/></g>
<rect x="57.180" y="70.758" width="4.600" height="4.600" rx="0.5" fill="none" stroke="#4A6FA5" stroke-width="0.45" opacity="0.6"/>
<g fill="#2E281F"><path d="M735 831Q856 831 908.5 876.0Q961 921 961 1024Q961 1126 908.5 1170.0Q856 1214 735 1214H573V831ZM573 565V0H188V1493H776Q1071 1493 1208.5 1394.0Q1346 1295 1346 1081Q1346 933 1274.5 838.0Q1203 743 1059 698Q1138 680 1200.5 616.5Q1263 553 1327 424L1536 0H1126L944 371Q889 483 832.5 524.0Q776 565 682 565Z" transform="translate(57.036,78.258) scale(0.000781,-0.000781)"/>
<path d="M1094 272H492L397 0H10L563 1493H1022L1575 0H1188ZM588 549H997L793 1143Z" transform="translate(58.330,78.258) scale(0.000781,-0.000781)"/>
<path d="M10 1493H1386V1202H891V0H506V1202H10Z" transform="translate(59.630,78.258) scale(0.000781,-0.000781)"/>
<path d="M188 1493H1227V1202H573V924H1188V633H573V291H1249V0H188Z" transform="translate(60.776,78.258) scale(0.000781,-0.000781)"/></g>
<g fill="#2E281F"><path d="M735 831Q856 831 908.5 876.0Q961 921 961 1024Q961 1126 908.5 1170.0Q856 1214 735 1214H573V831ZM573 565V0H188V1493H776Q1071 1493 1208.5 1394.0Q1346 1295 1346 1081Q1346 933 1274.5 838.0Q1203 743 1059 698Q1138 680 1200.5 616.5Q1263 553 1327 424L1536 0H1126L944 371Q889 483 832.5 524.0Q776 565 682 565Z" transform="translate(57.076,78.258) scale(0.000781,-0.000781)"/>
<path d="M1094 272H492L397 0H10L563 1493H1022L1575 0H1188ZM588 549H997L793 1143Z" transform="translate(58.370,78.258) scale(0.000781,-0.000781)"/>
<path d="M10 1493H1386V1202H891V0H506V1202H10Z" transform="translate(59.670,78.258) scale(0.000781,-0.000781)"/>
<path d="M188 1493H1227V1202H573V924H1188V633H573V291H1249V0H188Z" transform="translate(60.816,78.258) scale(0.000781,-0.000781)"/></g>
<rect x="57.180" y="82.358" width="4.600" height="4.600" rx="0.5" fill="none" stroke="#1D7A5C" stroke-width="0.45" opacity="0.6"/>
<g fill="#2E281F"><path d="M573 1202V291H711Q947 291 1071.5 408.0Q1196 525 1196 748Q1196 970 1072.0 1086.0Q948 1202 711 1202ZM188 1493H594Q934 1493 1100.5 1444.5Q1267 1396 1386 1280Q1491 1179 1542.0 1047.0Q1593 915 1593 748Q1593 579 1542.0 446.5Q1491 314 1386 213Q1266 97 1098.0 48.5Q930 0 594 0H188Z" transform="translate(56.317,89.858) scale(0.000781,-0.000781)"/>
<path d="M188 1493H1227V1202H573V924H1188V633H573V291H1249V0H188Z" transform="translate(57.712,89.858) scale(0.000781,-0.000781)"/>
<path d="M188 1493H827Q1112 1493 1264.5 1366.5Q1417 1240 1417 1006Q1417 771 1264.5 644.5Q1112 518 827 518H573V0H188ZM573 1214V797H786Q898 797 959.0 851.5Q1020 906 1020 1006Q1020 1106 959.0 1160.0Q898 1214 786 1214Z" transform="translate(58.859,89.858) scale(0.000781,-0.000781)"/>
<path d="M10 1493H1386V1202H891V0H506V1202H10Z" transform="translate(60.091,89.858) scale(0.000781,-0.000781)"/>
<path d="M188 1493H573V924H1141V1493H1526V0H1141V633H573V0H188Z" transform="translate(61.237,89.858) scale(0.000781,-0.000781)"/></g>
<g fill="#2E281F"><path d="M573 1202V291H711Q947 291 1071.5 408.0Q1196 525 1196 748Q1196 970 1072.0 1086.0Q948 1202 711 1202ZM188 1493H594Q934 1493 1100.5 1444.5Q1267 1396 1386 1280Q1491 1179 1542.0 1047.0Q1593 915 1593 748Q1593 579 1542.0 446.5Q1491 314 1386 213Q1266 97 1098.0 48.5Q930 0 594 0H188Z" transform="translate(56.357,89.858) scale(0.000781,-0.000781)"/>
<path d="M188 1493H1227V1202H573V924H1188V633H573V291H1249V0H188Z" transform="translate(57.752,89.858) scale(0.000781,-0.000781)"/>
<path d="M188 1493H827Q1112 1493 1264.5 1366.5Q1417 1240 1417 1006Q1417 771 1264.5 644.5Q1112 518 827 518H573V0H188ZM573 1214V797H786Q898 797 959.0 851.5Q1020 906 1020 1006Q1020 1106 959.0 1160.0Q898 1214 786 1214Z" transform="translate(58.899,89.858) scale(0.000781,-0.000781)"/>
<path d="M10 1493H1386V1202H891V0H506V1202H10Z" transform="translate(60.131,89.858) scale(0.000781,-0.000781)"/>
<path d="M188 1493H573V924H1141V1493H1526V0H1141V633H573V0H188Z" transform="translate(61.277,89.858) scale(0.000781,-0.000781)"/></g>
<polygon points="15.625,105.980 14.380,107.225 12.620,107.225 11.375,105.980 11.375,104.220 12.620,102.975 14.380,102.975 15.625,104.220" fill="none" stroke="#8A6423" stroke-width="0.5" opacity="0.65"/>
<g fill="#2E281F"><path d="M573 1202V291H711Q947 291 1071.5 408.0Q1196 525 1196 748Q1196 970 1072.0 1086.0Q948 1202 711 1202ZM188 1493H594Q934 1493 1100.5 1444.5Q1267 1396 1386 1280Q1491 1179 1542.0 1047.0Q1593 915 1593 748Q1593 579 1542.0 446.5Q1491 314 1386 213Q1266 97 1098.0 48.5Q930 0 594 0H188Z" transform="translate(11.393,110.000) scale(0.000537,-0.000537)"/>
<path d="M188 1493H1227V1202H573V924H1188V633H573V291H1249V0H188Z" transform="translate(12.352,110.000) scale(0.000537,-0.000537)"/>
<path d="M188 1493H573V291H1249V0H188Z" transform="translate(13.141,110.000) scale(0.000537,-0.000537)"/>
<path d="M1094 272H492L397 0H10L563 1493H1022L1575 0H1188ZM588 549H997L793 1143Z" transform="translate(13.877,110.000) scale(0.000537,-0.000537)"/>
<path d="M-20 1493H401L741 961L1081 1493H1503L934 629V0H549V629Z" transform="translate(14.771,110.000) scale(0.000537,-0.000537)"/></g>
<g fill="#2E281F"><path d="M573 1202V291H711Q947 291 1071.5 408.0Q1196 525 1196 748Q1196 970 1072.0 1086.0Q948 1202 711 1202ZM188 1493H594Q934 1493 1100.5 1444.5Q1267 1396 1386 1280Q1491 1179 1542.0 1047.0Q1593 915 1593 748Q1593 579 1542.0 446.5Q1491 314 1386 213Q1266 97 1098.0 48.5Q930 0 594 0H188Z" transform="translate(11.433,110.000) scale(0.000537,-0.000537)"/>
<path d="M188 1493H1227V1202H573V924H1188V633H573V291H1249V0H188Z" transform="translate(12.392,110.000) scale(0.000537,-0.000537)"/>
<path d="M188 1493H573V291H1249V0H188Z" transform="translate(13.181,110.000) scale(0.000537,-0.000537)"/>
<path d="M1094 272H492L397 0H10L563 1493H1022L1575 0H1188ZM588 549H997L793 1143Z" transform="translate(13.917,110.000) scale(0.000537,-0.000537)"/>
<path d="M-20 1493H401L741 961L1081 1493H1503L934 629V0H549V629Z" transform="translate(14.811,110.000) scale(0.000537,-0.000537)"/></g>
<polygon points="31.998,105.980 30.754,107.225 28.993,107.225 27.748,105.980 27.748,104.220 28.993,102.975 30.754,102.975 31.998,104.220" fill="none" stroke="#8A2A2A" stroke-width="0.5" opacity="0.65"/>
<g fill="#2E281F"><path d="M735 831Q856 831 908.5 876.0Q961 921 961 1024Q961 1126 908.5 1170.0Q856 1214 735 1214H573V831ZM573 565V0H188V1493H776Q1071 1493 1208.5 1394.0Q1346 1295 1346 1081Q1346 933 1274.5 838.0Q1203 743 1059 698Q1138 680 1200.5 616.5Q1263 553 1327 424L1536 0H1126L944 371Q889 483 832.5 524.0Q776 565 682 565Z" transform="translate(27.308,110.000) scale(0.000537,-0.000537)"/>
<path d="M188 1493H1227V1202H573V924H1188V633H573V291H1249V0H188Z" transform="translate(28.197,110.000) scale(0.000537,-0.000537)"/>
<path d="M10 1493H397L793 391L1188 1493H1575L1022 0H563Z" transform="translate(28.986,110.000) scale(0.000537,-0.000537)"/>
<path d="M188 1493H1227V1202H573V924H1188V633H573V291H1249V0H188Z" transform="translate(29.880,110.000) scale(0.000537,-0.000537)"/>
<path d="M735 831Q856 831 908.5 876.0Q961 921 961 1024Q961 1126 908.5 1170.0Q856 1214 735 1214H573V831ZM573 565V0H188V1493H776Q1071 1493 1208.5 1394.0Q1346 1295 1346 1081Q1346 933 1274.5 838.0Q1203 743 1059 698Q1138 680 1200.5 616.5Q1263 553 1327 424L1536 0H1126L944 371Q889 483 832.5 524.0Q776 565 682 565Z" transform="translate(30.669,110.000) scale(0.000537,-0.000537)"/>
<path d="M786 915Q877 915 924.0 955.0Q971 995 971 1073Q971 1150 924.0 1190.5Q877 1231 786 1231H573V915ZM799 262Q915 262 973.5 311.0Q1032 360 1032 459Q1032 556 974.0 604.5Q916 653 799 653H573V262ZM1157 799Q1281 763 1349.0 666.0Q1417 569 1417 428Q1417 212 1271.0 106.0Q1125 0 827 0H188V1493H766Q1077 1493 1216.5 1399.0Q1356 1305 1356 1098Q1356 989 1305.0 912.5Q1254 836 1157 799Z" transform="translate(31.558,110.000) scale(0.000537,-0.000537)"/></g>
<g fill="#2E281F"><path d="M735 831Q856 831 908.5 876.0Q961 921 961 1024Q961 1126 908.5 1170.0Q856 1214 735 1214H573V831ZM573 565V0H188V1493H776Q1071 1493 1208.5 1394.0Q1346 1295 1346 1081Q1346 933 1274.5 838.0Q1203 743 1059 698Q1138 680 1200.5 616.5Q1263 553 1327 424L1536 0H1126L944 371Q889 483 832.5 524.0Q776 565 682 565Z" transform="translate(27.348,110.000) scale(0.000537,-0.000537)"/>
<path d="M188 1493H1227V1202H573V924H1188V633H573V291H1249V0H188Z" transform="translate(28.237,110.000) scale(0.000537,-0.000537)"/>
<path d="M10 1493H397L793 391L1188 1493H1575L1022 0H563Z" transform="translate(29.026,110.000) scale(0.000537,-0.000537)"/>
<path d="M188 1493H1227V1202H573V924H1188V633H573V291H1249V0H188Z" transform="translate(29.920,110.000) scale(0.000537,-0.000537)"/>
<path d="M735 831Q856 831 908.5 876.0Q961 921 961 1024Q961 1126 908.5 1170.0Q856 1214 735 1214H573V831ZM573 565V0H188V1493H776Q1071 1493 1208.5 1394.0Q1346 1295 1346 1081Q1346 933 1274.5 838.0Q1203 743 1059 698Q1138 680 1200.5 616.5Q1263 553 1327 424L1536 0H1126L944 371Q889 483 832.5 524.0Q776 565 682 565Z" transform="translate(30.709,110.000) scale(0.000537,-0.000537)"/>
<path d="M786 915Q877 915 924.0 955.0Q971 995 971 1073Q971 1150 924.0 1190.5Q877 1231 786 1231H573V915ZM799 262Q915 262 973.5 311.0Q1032 360 1032 459Q1032 556 974.0 604.5Q916 653 799 653H573V262ZM1157 799Q1281 763 1349.0 666.0Q1417 569 1417 428Q1417 212 1271.0 106.0Q1125 0 827 0H188V1493H766Q1077 1493 1216.5 1399.0Q1356 1305 1356 1098Q1356 989 1305.0 912.5Q1254 836 1157 799Z" transform="translate(31.598,110.000) scale(0.000537,-0.000537)"/></g>
<polygon points="48.372,105.980 47.127,107.225 45.366,107.225 44.122,105.980 44.122,104.220 45.366,102.975 47.127,102.975 48.372,104.220" fill="none" stroke="#2E4A6E" stroke-width="0.5" opacity="0.65"/>
<g fill="#2E281F"><path d="M1227 1446V1130Q1104 1185 987.0 1213.0Q870 1241 766 1241Q628 1241 562.0 1203.0Q496 1165 496 1085Q496 1025 540.5 991.5Q585 958 702 934L866 901Q1115 851 1220.0 749.0Q1325 647 1325 459Q1325 212 1178.5 91.5Q1032 -29 731 -29Q589 -29 446.0 -2.0Q303 25 160 78V403Q303 327 436.5 288.5Q570 250 694 250Q820 250 887.0 292.0Q954 334 954 412Q954 482 908.5 520.0Q863 558 727 588L578 621Q354 669 250.5 774.0Q147 879 147 1057Q147 1280 291.0 1400.0Q435 1520 705 1520Q828 1520 958.0 1501.5Q1088 1483 1227 1446Z" transform="translate(44.558,110.000) scale(0.000537,-0.000537)"/>
<path d="M188 1493H573V924H1141V1493H1526V0H1141V633H573V0H188Z" transform="translate(45.390,110.000) scale(0.000537,-0.000537)"/>
<path d="M188 1493H573V0H188Z" transform="translate(46.356,110.000) scale(0.000537,-0.000537)"/>
<path d="M188 1493H678L1018 694L1360 1493H1849V0H1485V1092L1141 287H897L553 1092V0H188Z" transform="translate(46.786,110.000) scale(0.000537,-0.000537)"/></g>
<g fill="#2E281F"><path d="M1227 1446V1130Q1104 1185 987.0 1213.0Q870 1241 766 1241Q628 1241 562.0 1203.0Q496 1165 496 1085Q496 1025 540.5 991.5Q585 958 702 934L866 901Q1115 851 1220.0 749.0Q1325 647 1325 459Q1325 212 1178.5 91.5Q1032 -29 731 -29Q589 -29 446.0 -2.0Q303 25 160 78V403Q303 327 436.5 288.5Q570 250 694 250Q820 250 887.0 292.0Q954 334 954 412Q954 482 908.5 520.0Q863 558 727 588L578 621Q354 669 250.5 774.0Q147 879 147 1057Q147 1280 291.0 1400.0Q435 1520 705 1520Q828 1520 958.0 1501.5Q1088 1483 1227 1446Z" transform="translate(44.598,110.000) scale(0.000537,-0.000537)"/>
<path d="M188 1493H573V924H1141V1493H1526V0H1141V633H573V0H188Z" transform="translate(45.430,110.000) scale(0.000537,-0.000537)"/>
<path d="M188 1493H573V0H188Z" transform="translate(46.396,110.000) scale(0.000537,-0.000537)"/>
<path d="M188 1493H678L1018 694L1360 1493H1849V0H1485V1092L1141 287H897L553 1092V0H188Z" transform="translate(46.826,110.000) scale(0.000537,-0.000537)"/></g>
<polygon points="64.745,105.980 63.500,107.225 61.740,107.225 60.495,105.980 60.495,104.220 61.740,102.975 63.500,102.975 64.745,104.220" fill="none" stroke="#6B4C8A" stroke-width="0.5" opacity="0.65"/>
<g fill="#2E281F"><path d="M1227 1446V1130Q1104 1185 987.0 1213.0Q870 1241 766 1241Q628 1241 562.0 1203.0Q496 1165 496 1085Q496 1025 540.5 991.5Q585 958 702 934L866 901Q1115 851 1220.0 749.0Q1325 647 1325 459Q1325 212 1178.5 91.5Q1032 -29 731 -29Q589 -29 446.0 -2.0Q303 25 160 78V403Q303 327 436.5 288.5Q570 250 694 250Q820 250 887.0 292.0Q954 334 954 412Q954 482 908.5 520.0Q863 558 727 588L578 621Q354 669 250.5 774.0Q147 879 147 1057Q147 1280 291.0 1400.0Q435 1520 705 1520Q828 1520 958.0 1501.5Q1088 1483 1227 1446Z" transform="translate(60.879,110.000) scale(0.000537,-0.000537)"/>
<path d="M-20 1493H401L741 961L1081 1493H1503L934 629V0H549V629Z" transform="translate(61.711,110.000) scale(0.000537,-0.000537)"/>
<path d="M188 1493H618L1161 469V1493H1526V0H1096L553 1024V0H188Z" transform="translate(62.547,110.000) scale(0.000537,-0.000537)"/>
<path d="M1372 82Q1266 27 1151.0 -1.0Q1036 -29 911 -29Q538 -29 320.0 179.5Q102 388 102 745Q102 1103 320.0 1311.5Q538 1520 911 1520Q1036 1520 1151.0 1492.0Q1266 1464 1372 1409V1100Q1265 1173 1161.0 1207.0Q1057 1241 942 1241Q736 1241 618.0 1109.0Q500 977 500 745Q500 514 618.0 382.0Q736 250 942 250Q1057 250 1161.0 284.0Q1265 318 1372 391Z" transform="translate(63.514,110.000) scale(0.000537,-0.000537)"/></g>
<g fill="#2E281F"><path d="M1227 1446V1130Q1104 1185 987.0 1213.0Q870 1241 766 1241Q628 1241 562.0 1203.0Q496 1165 496 1085Q496 1025 540.5 991.5Q585 958 702 934L866 901Q1115 851 1220.0 749.0Q1325 647 1325 459Q1325 212 1178.5 91.5Q1032 -29 731 -29Q589 -29 446.0 -2.0Q303 25 160 78V403Q303 327 436.5 288.5Q570 250 694 250Q820 250 887.0 292.0Q954 334 954 412Q954 482 908.5 520.0Q863 558 727 588L578 621Q354 669 250.5 774.0Q147 879 147 1057Q147 1280 291.0 1400.0Q435 1520 705 1520Q828 1520 958.0 1501.5Q1088 1483 1227 1446Z" transform="translate(60.919,110.000) scale(0.000537,-0.000537)"/>
<path d="M-20 1493H401L741 961L1081 1493H1503L934 629V0H549V629Z" transform="translate(61.751,110.000) scale(0.000537,-0.000537)"/>
<path d="M188 1493H618L1161 469V1493H1526V0H1096L553 1024V0H188Z" transform="translate(62.587,110.000) scale(0.000537,-0.000537)"/>
<path d="M1372 82Q1266 27 1151.0 -1.0Q1036 -29 911 -29Q538 -29 320.0 179.5Q102 388 102 745Q102 1103 320.0 1311.5Q538 1520 911 1520Q1036 1520 1151.0 1492.0Q1266 1464 1372 1409V1100Q1265 1173 1161.0 1207.0Q1057 1241 942 1241Q736 1241 618.0 1109.0Q500 977 500 745Q500 514 618.0 382.0Q736 250 942 250Q1057 250 1161.0 284.0Q1265 318 1372 391Z" transform="translate(63.554,110.000) scale(0.000537,-0.000537)"/></g>
<circle cx="13.500" cy="115.800" r="3.000" fill="none" stroke="#8A2A2A" stroke-width="0.4" opacity="0.55"/>
<g fill="#2E281F"><path d="M188 1493H678L1018 694L1360 1493H1849V0H1485V1092L1141 287H897L553 1092V0H188Z" transform="translate(12.265,121.400) scale(0.000537,-0.000537)"/>
<path d="M188 1493H573V0H188Z" transform="translate(13.415,121.400) scale(0.000537,-0.000537)"/>
<path d="M1020 762 1538 0H1137L788 510L442 0H39L557 762L59 1493H461L788 1012L1114 1493H1518Z" transform="translate(13.844,121.400) scale(0.000537,-0.000537)"/></g>
<g fill="#2E281F"><path d="M188 1493H678L1018 694L1360 1493H1849V0H1485V1092L1141 287H897L553 1092V0H188Z" transform="translate(12.305,121.400) scale(0.000537,-0.000537)"/>
<path d="M188 1493H573V0H188Z" transform="translate(13.455,121.400) scale(0.000537,-0.000537)"/>
<path d="M1020 762 1538 0H1137L788 510L442 0H39L557 762L59 1493H461L788 1012L1114 1493H1518Z" transform="translate(13.884,121.400) scale(0.000537,-0.000537)"/></g>
<circle cx="25.780" cy="115.800" r="3.000" fill="none" stroke="#8A2A2A" stroke-width="0.4" opacity="0.55"/>
<g fill="#2E281F"><path d="M10 1493H1386V1202H891V0H506V1202H10Z" transform="translate(24.202,121.400) scale(0.000537,-0.000537)"/>
<path d="M188 1493H573V0H188Z" transform="translate(24.990,121.400) scale(0.000537,-0.000537)"/>
<path d="M188 1493H678L1018 694L1360 1493H1849V0H1485V1092L1141 287H897L553 1092V0H188Z" transform="translate(25.420,121.400) scale(0.000537,-0.000537)"/>
<path d="M188 1493H1227V1202H573V924H1188V633H573V291H1249V0H188Z" transform="translate(26.569,121.400) scale(0.000537,-0.000537)"/></g>
<g fill="#2E281F"><path d="M10 1493H1386V1202H891V0H506V1202H10Z" transform="translate(24.242,121.400) scale(0.000537,-0.000537)"/>
<path d="M188 1493H573V0H188Z" transform="translate(25.030,121.400) scale(0.000537,-0.000537)"/>
<path d="M188 1493H678L1018 694L1360 1493H1849V0H1485V1092L1141 287H897L553 1092V0H188Z" transform="translate(25.460,121.400) scale(0.000537,-0.000537)"/>
<path d="M188 1493H1227V1202H573V924H1188V633H573V291H1249V0H188Z" transform="translate(26.609,121.400) scale(0.000537,-0.000537)"/></g>
<circle cx="38.060" cy="115.800" r="3.000" fill="none" stroke="#8A2A2A" stroke-width="0.4" opacity="0.55"/>
<g fill="#2E281F"><path d="M735 831Q856 831 908.5 876.0Q961 921 961 1024Q961 1126 908.5 1170.0Q856 1214 735 1214H573V831ZM573 565V0H188V1493H776Q1071 1493 1208.5 1394.0Q1346 1295 1346 1081Q1346 933 1274.5 838.0Q1203 743 1059 698Q1138 680 1200.5 616.5Q1263 553 1327 424L1536 0H1126L944 371Q889 483 832.5 524.0Q776 565 682 565Z" transform="translate(35.869,121.400) scale(0.000537,-0.000537)"/>
<path d="M188 1493H1227V1202H573V924H1188V633H573V291H1249V0H188Z" transform="translate(36.758,121.400) scale(0.000537,-0.000537)"/>
<path d="M1530 111Q1386 41 1231.0 6.0Q1076 -29 911 -29Q538 -29 320.0 179.5Q102 388 102 745Q102 1106 324.0 1313.0Q546 1520 932 1520Q1081 1520 1217.5 1492.0Q1354 1464 1475 1409V1100Q1350 1171 1226.5 1206.0Q1103 1241 979 1241Q749 1241 624.5 1112.5Q500 984 500 745Q500 508 620.0 379.0Q740 250 961 250Q1021 250 1072.5 257.5Q1124 265 1165 281V571H930V829H1530Z" transform="translate(37.547,121.400) scale(0.000537,-0.000537)"/>
<path d="M188 1493H1227V1202H573V924H1188V633H573V291H1249V0H188Z" transform="translate(38.495,121.400) scale(0.000537,-0.000537)"/>
<path d="M188 1493H618L1161 469V1493H1526V0H1096L553 1024V0H188Z" transform="translate(39.284,121.400) scale(0.000537,-0.000537)"/></g>
<g fill="#2E281F"><path d="M735 831Q856 831 908.5 876.0Q961 921 961 1024Q961 1126 908.5 1170.0Q856 1214 735 1214H573V831ZM573 565V0H188V1493H776Q1071 1493 1208.5 1394.0Q1346 1295 1346 1081Q1346 933 1274.5 838.0Q1203 743 1059 698Q1138 680 1200.5 616.5Q1263 553 1327 424L1536 0H1126L944 371Q889 483 832.5 524.0Q776 565 682 565Z" transform="translate(35.909,121.400) scale(0.000537,-0.000537)"/>
<path d="M188 1493H1227V1202H573V924H1188V633H573V291H1249V0H188Z" transform="translate(36.798,121.400) scale(0.000537,-0.000537)"/>
<path d="M1530 111Q1386 41 1231.0 6.0Q1076 -29 911 -29Q538 -29 320.0 179.5Q102 388 102 745Q102 1106 324.0 1313.0Q546 1520 932 1520Q1081 1520 1217.5 1492.0Q1354 1464 1475 1409V1100Q1350 1171 1226.5 1206.0Q1103 1241 979 1241Q749 1241 624.5 1112.5Q500 984 500 745Q500 508 620.0 379.0Q740 250 961 250Q1021 250 1072.5 257.5Q1124 265 1165 281V571H930V829H1530Z" transform="translate(37.587,121.400) scale(0.000537,-0.000537)"/>
<path d="M188 1493H1227V1202H573V924H1188V633H573V291H1249V0H188Z" transform="translate(38.535,121.400) scale(0.000537,-0.000537)"/>
<path d="M188 1493H618L1161 469V1493H1526V0H1096L553 1024V0H188Z" transform="translate(39.324,121.400) scale(0.000537,-0.000537)"/></g>
<circle cx="50.340" cy="115.800" r="3.000" fill="none" stroke="#8A2A2A" stroke-width="0.4" opacity="0.55"/>
<g fill="#2E281F"><path d="M10 1493H1386V1202H891V0H506V1202H10Z" transform="translate(48.577,121.400) scale(0.000537,-0.000537)"/>
<path d="M870 1241Q694 1241 597.0 1111.0Q500 981 500 745Q500 510 597.0 380.0Q694 250 870 250Q1047 250 1144.0 380.0Q1241 510 1241 745Q1241 981 1144.0 1111.0Q1047 1241 870 1241ZM870 1520Q1230 1520 1434.0 1314.0Q1638 1108 1638 745Q1638 383 1434.0 177.0Q1230 -29 870 -29Q511 -29 306.5 177.0Q102 383 102 745Q102 1108 306.5 1314.0Q511 1520 870 1520Z" transform="translate(49.365,121.400) scale(0.000537,-0.000537)"/>
<path d="M188 1493H618L1161 469V1493H1526V0H1096L553 1024V0H188Z" transform="translate(50.347,121.400) scale(0.000537,-0.000537)"/>
<path d="M188 1493H1227V1202H573V924H1188V633H573V291H1249V0H188Z" transform="translate(51.314,121.400) scale(0.000537,-0.000537)"/></g>
<g fill="#2E281F"><path d="M10 1493H1386V1202H891V0H506V1202H10Z" transform="translate(48.617,121.400) scale(0.000537,-0.000537)"/>
<path d="M870 1241Q694 1241 597.0 1111.0Q500 981 500 745Q500 510 597.0 380.0Q694 250 870 250Q1047 250 1144.0 380.0Q1241 510 1241 745Q1241 981 1144.0 1111.0Q1047 1241 870 1241ZM870 1520Q1230 1520 1434.0 1314.0Q1638 1108 1638 745Q1638 383 1434.0 177.0Q1230 -29 870 -29Q511 -29 306.5 177.0Q102 383 102 745Q102 1108 306.5 1314.0Q511 1520 870 1520Z" transform="translate(49.405,121.400) scale(0.000537,-0.000537)"/>
<path d="M188 1493H618L1161 469V1493H1526V0H1096L553 1024V0H188Z" transform="translate(50.387,121.400) scale(0.000537,-0.000537)"/>
<path d="M188 1493H1227V1202H573V924H1188V633H573V291H1249V0H188Z" transform="translate(51.354,121.400) scale(0.000537,-0.000537)"/></g>
<circle cx="62.620" cy="115.800" r="3.000" fill="none" stroke="#2E4A6E" stroke-width="0.4" opacity="0.55"/>
<g fill="#2E281F"><path d="M1227 1446V1130Q1104 1185 987.0 1213.0Q870 1241 766 1241Q628 1241 562.0 1203.0Q496 1165 496 1085Q496 1025 540.5 991.5Q585 958 702 934L866 901Q1115 851 1220.0 749.0Q1325 647 1325 459Q1325 212 1178.5 91.5Q1032 -29 731 -29Q589 -29 446.0 -2.0Q303 25 160 78V403Q303 327 436.5 288.5Q570 250 694 250Q820 250 887.0 292.0Q954 334 954 412Q954 482 908.5 520.0Q863 558 727 588L578 621Q354 669 250.5 774.0Q147 879 147 1057Q147 1280 291.0 1400.0Q435 1520 705 1520Q828 1520 958.0 1501.5Q1088 1483 1227 1446Z" transform="translate(60.512,121.400) scale(0.000537,-0.000537)"/>
<path d="M188 1493H827Q1112 1493 1264.5 1366.5Q1417 1240 1417 1006Q1417 771 1264.5 644.5Q1112 518 827 518H573V0H188ZM573 1214V797H786Q898 797 959.0 851.5Q1020 906 1020 1006Q1020 1106 959.0 1160.0Q898 1214 786 1214Z" transform="translate(61.344,121.400) scale(0.000537,-0.000537)"/>
<path d="M188 1493H1227V1202H573V924H1188V633H573V291H1249V0H188Z" transform="translate(62.191,121.400) scale(0.000537,-0.000537)"/>
<path d="M188 1493H1227V1202H573V924H1188V633H573V291H1249V0H188Z" transform="translate(62.980,121.400) scale(0.000537,-0.000537)"/>
<path d="M573 1202V291H711Q947 291 1071.5 408.0Q1196 525 1196 748Q1196 970 1072.0 1086.0Q948 1202 711 1202ZM188 1493H594Q934 1493 1100.5 1444.5Q1267 1396 1386 1280Q1491 1179 1542.0 1047.0Q1593 915 1593 748Q1593 579 1542.0 446.5Q1491 314 1386 213Q1266 97 1098.0 48.5Q930 0 594 0H188Z" transform="translate(63.769,121.400) scale(0.000537,-0.000537)"/></g>
<g fill="#2E281F"><path d="M1227 1446V1130Q1104 1185 987.0 1213.0Q870 1241 766 1241Q628 1241 562.0 1203.0Q496 1165 496 1085Q496 1025 540.5 991.5Q585 958 702 934L866 901Q1115 851 1220.0 749.0Q1325 647 1325 459Q1325 212 1178.5 91.5Q1032 -29 731 -29Q589 -29 446.0 -2.0Q303 25 160 78V403Q303 327 436.5 288.5Q570 250 694 250Q820 250 887.0 292.0Q954 334 954 412Q954 482 908.5 520.0Q863 558 727 588L578 621Q354 669 250.5 774.0Q147 879 147 1057Q147 1280 291.0 1400.0Q435 1520 705 1520Q828 1520 958.0 1501.5Q1088 1483 1227 1446Z" transform="translate(60.552,121.400) scale(0.000537,-0.000537)"/>
<path d="M188 1493H827Q1112 1493 1264.5 1366.5Q1417 1240 1417 1006Q1417 771 1264.5 644.5Q1112 518 827 518H573V0H188ZM573 1214V797H786Q898 797 959.0 851.5Q1020 906 1020 1006Q1020 1106 959.0 1160.0Q898 1214 786 1214Z" transform="translate(61.384,121.400) scale(0.000537,-0.000537)"/>
<path d="M188 1493H1227V1202H573V924H1188V633H573V291H1249V0H188Z" transform="translate(62.231,121.400) scale(0.000537,-0.000537)"/>
<path d="M188 1493H1227V1202H573V924H1188V633H573V291H1249V0H188Z" transform="translate(63.020,121.400) scale(0.000537,-0.000537)"/>
<path d="M573 1202V291H711Q947 291 1071.5 408.0Q1196 525 1196 748Q1196 970 1072.0 1086.0Q948 1202 711 1202ZM188 1493H594Q934 1493 1100.5 1444.5Q1267 1396 1386 1280Q1491 1179 1542.0 1047.0Q1593 915 1593 748Q1593 579 1542.0 446.5Q1491 314 1386 213Q1266 97 1098.0 48.5Q930 0 594 0H188Z" transform="translate(63.809,121.400) scale(0.000537,-0.000537)"/></g>
</svg>